<?xml version="1.0" encoding="UTF-8"?>
<svg width="219px" height="242px" viewBox="0 0 219 242" version="1.1" xmlns="http://www.w3.org/2000/svg" xmlns:xlink="http://www.w3.org/1999/xlink">
    <!-- Generator: Sketch 51.2 (57519) - http://www.bohemiancoding.com/sketch -->
    <title>Logo Copy</title>
    <desc>Created with Sketch.</desc>
    <defs></defs>
    <g id="Page-1" stroke="none" stroke-width="1" fill="none" fill-rule="evenodd">
        <g id="Logo-Copy" transform="translate(0.000000, 1.000000)">
            <path d="M46.5,162 C44.860401,157.54966 45.5757474,143.800184 45.5,129.5 C45.4242526,115.199816 44.7026853,96.3154314 45.5,91 C46.1424521,86.7169859 50.5472887,82.6285916 55.5,77.5 C60.4527113,72.3714084 70.2462242,62.6453275 77,56.5 C88.8135253,45.7507563 88,42.5 99.5,40.5 C112,42.5 170,68 170,68 L173.5,136.5 C173.5,136.5 131.5,188 126,193.5 C114.5,194.5 52,166.5 46.5,162 Z" id="Line" stroke="#81BBBE" stroke-width="4" stroke-linecap="square"></path>
            <path d="M30.0253275,170.916761 C27.9471077,165.681961 28.8538215,149.50887 28.7578104,132.687998 C28.6617993,115.867126 27.7472004,93.6539974 28.7578104,87.4016169 C29.5721294,82.3636374 35.1553351,77.5545833 41.4329815,71.5219767 C47.7106278,65.4893702 60.1240729,54.0488765 68.6845992,46.8203143 C83.6584446,34.1763052 82.6272874,30.3525393 97.2037341,28 C113.047698,30.3525393 184.62738,55.1948303 186.56369,60.3474151 C187.338367,62.4088552 187.921032,73.5441151 189,87.4016169 C190.078968,101.259119 192.499803,134.01306 191,136 C188.5,139.312002 136.471344,203.530517 129.5,210 C114.923553,211.17627 36.9966716,176.209975 30.0253275,170.916761 Z" id="Line-Copy" stroke="#81BBBE" stroke-width="3" stroke-linecap="square"></path>
            <path d="M21.2333455,175.4561 C18.9064996,169.762005 19.9216874,152.169907 19.81419,133.873193 C19.7066927,115.576478 18.6826765,91.4143976 19.81419,84.6134409 C20.7259294,79.1334354 26.9770772,73.9024408 34.0057444,67.3405409 C41.0344117,60.7786409 54.9329287,48.3343725 64.5175864,40.4715852 C81.2828151,26.7182065 80.1282963,22.5589482 96.4485838,20 C106.5,18.5 118.929077,24.1671065 135.5,29.5 C152.070923,34.8328935 194.635502,51.9724623 196,55.5 C196.867354,57.7423083 198.018769,69.5400992 199.226818,84.6134409 C200.434867,99.6867827 203.145317,135.314514 201.466086,137.475786 C199.795743,139.625619 178.43018,164.938542 160,187 C141.56982,209.061458 137.000592,215.964905 132.608586,217.968454 C121.717172,222.936908 29.0387004,181.213734 21.2333455,175.4561 Z" id="Line-Copy-2" stroke="#81BBBE" stroke-width="2" stroke-linecap="square"></path>
            <path d="M12.4251345,181.106504 C9.86905964,174.885587 10.9842585,155.665856 10.8661711,135.676316 C10.7480837,115.686777 9.62318667,89.2892029 10.8661711,81.8590169 C11.8677305,75.8719974 18.7347095,70.1570274 26.4558052,62.9880158 C34.176901,55.8190042 49.4446293,42.2233832 59.9735186,33.6331253 C78.3903723,18.6072742 77.1221162,14.0631983 95.0501954,11.2674944 C106.091826,9.62871333 119.745353,15.8201446 137.948758,21.6464412 C156.152164,27.4727377 202.909989,46.1980717 204.408911,50.0519797 C205.361712,52.5017479 206.626558,65.3910788 207.953618,81.8590169 C209.280679,98.3269549 212.258148,137.250989 210.413488,139.612224 C208.578591,141.960961 185.108202,169.615853 164.862374,193.718453 C144.616546,217.821053 139.597181,225.363212 134.772497,227.552131 C122.808116,232.980269 20.9994333,187.396838 12.4251345,181.106504 Z" id="Line-Copy-3" stroke="#81BBBE" stroke-linecap="square"></path>
            <path d="M2.60626864,188.136226 C-0.166300322,181.255949 1.04335353,159.999103 0.915264363,137.890857 C0.787175196,115.78261 -0.43299821,86.5871368 0.915264363,78.3694196 C2.00165363,71.7478312 9.45025107,65.4271271 17.8253071,57.4982663 C26.2003632,49.5694056 42.7612353,34.5327741 54.181899,25.032028 C74.1586208,8.41357511 72.7829461,3.38786904 92.2294952,0.295846336 C104.206328,-1.51663042 119.01628,5.33103548 138.761475,11.7748658 C158.50667,18.2186961 209.224783,38.9287429 210.850659,43.1911296 C211.884161,45.9005507 213.256137,60.1560319 214.695596,78.3694196 C216.135056,96.5828073 219.36471,139.632431 217.363812,142.243934 C215.373503,144.841615 189.915222,175.427672 167.954616,202.084925 C145.994009,228.742179 140.549515,237.083737 135.316191,239.504661 C122.338453,245.508132 11.9067922,195.093277 2.60626864,188.136226 Z" id="Line-Copy-4" stroke="#81BBBE" stroke-width="0.5" stroke-linecap="square"></path>
            <path d="M125.5,194.5 L123.5,119.5" id="Line" stroke="#81BBBE" stroke-width="2" stroke-linecap="square"></path>
            <polyline id="Line" stroke="#81BBBE" stroke-width="2" stroke-linecap="square" points="45.5 90.7714286 123.188 119 170 67"></polyline>
            <path d="M65.6437392,141.288043 C65.6437392,141.288043 70.7184612,143.801665 72.6792121,145.55958 C74.6399629,147.317495 80.2172186,154.353921 80.2172186,154.353921 C80.2172186,154.353921 82.8031693,154.907453 84.3631223,154.353921 C85.9230752,153.800389 87.0014246,153.60012 88.0064921,151.589985 C89.0115597,149.57985 90.2500005,142.901742 91.7754954,140.282975 C92.4816424,139.070756 94.3456736,135.846334 96.8008331,132.744969 C99.6495742,129.146431 103.082505,125.709496 103.082505,125.709496 C103.082505,125.709496 102.447566,124.010058 101.826171,123.699361 C101.204776,123.388663 99.8160358,122.94556 97.5546338,123.699361 C95.2932318,124.453162 91.6382337,128.893636 88.5090259,132.744969 C85.3798181,136.596301 81.72482,143.298178 81.72482,143.298178 C81.72482,143.298178 75.7685615,137.846698 72.6792121,137.51904 C69.5898626,137.191381 65.6437392,141.288043 65.6437392,141.288043 Z" id="Line" fill="#F8C16E" transform="translate(84.363122, 138.942041) rotate(11.000000) translate(-84.363122, -138.942041) "></path>
            <polygon id="Line-Copy-8" fill="#81BBBE" points="125.5 193.5 123.5 118.5 169 68.5 174.5 134.5"></polygon>
        </g>
    </g>
</svg>