<?xml version="1.0" standalone="no"?>
<!DOCTYPE svg PUBLIC "-//W3C//DTD SVG 20010904//EN"
 "http://www.w3.org/TR/2001/REC-SVG-20010904/DTD/svg10.dtd">
<svg version="1.0" xmlns="http://www.w3.org/2000/svg"
 width="260.000000pt" height="260.000000pt" viewBox="0 0 260.000000 260.000000"
 preserveAspectRatio="xMidYMid meet">
<metadata>
Created by potrace 1.11, written by Peter Selinger 2001-2013
</metadata>
<g transform="translate(0.000000,260.000000) scale(0.100000,-0.100000)"
fill="#000000" stroke="none">
<path d="M1156 2445 c-9 -26 -7 -32 5 -12 6 10 9 21 6 23 -2 3 -7 -2 -11 -11z"/>
<path d="M1235 2450 c5 -9 2 -10 -14 -5 -11 3 -21 3 -21 -2 0 -12 38 -14 45
-3 3 5 0 12 -6 16 -8 5 -9 3 -4 -6z"/>
<path d="M1093 2437 c-3 -6 -1 -7 5 -3 12 7 16 -5 13 -31 -1 -7 3 -13 9 -13 6
0 8 5 5 10 -3 6 -1 10 4 10 6 0 11 5 11 11 0 5 -5 7 -12 3 -7 -5 -9 -2 -6 8 7
16 -19 21 -29 5z"/>
<path d="M1265 2438 c8 -19 30 -24 40 -9 3 5 0 13 -6 17 -8 4 -9 3 -5 -4 10
-16 -7 -15 -23 1 -10 10 -11 9 -6 -5z"/>
<path d="M1049 2423 c-13 -17 -13 -17 6 -3 11 8 22 16 24 17 2 2 0 3 -6 3 -6
0 -17 -8 -24 -17z"/>
<path d="M1169 2422 c-36 -44 -41 -52 -33 -51 11 0 58 58 52 64 -2 3 -11 -3
-19 -13z"/>
<path d="M1325 2427 c-10 -8 -15 -18 -12 -24 10 -17 -23 -53 -48 -53 -18 0
-23 4 -19 15 4 8 1 15 -4 15 -6 0 -9 -12 -6 -27 2 -16 1 -23 -3 -18 -12 16
-68 1 -58 -15 9 -14 -25 -34 -37 -22 -8 8 -1 17 26 32 20 12 36 27 36 32 0 6
-6 5 -15 -2 -23 -19 -28 -6 -5 15 19 17 20 17 29 -6 5 -13 10 -17 10 -9 0 8
-5 23 -12 32 -14 18 -8 24 -75 -66 -13 -17 -23 -24 -22 -16 4 27 0 41 -10 35
-5 -3 -7 -12 -4 -19 3 -7 -2 -19 -11 -26 -13 -11 -19 -10 -33 5 -10 11 -11 15
-3 10 9 -5 12 -4 7 3 -3 6 3 17 14 25 19 13 18 27 -3 27 -6 0 -8 -3 -4 -6 3
-3 -3 -15 -14 -27 -24 -26 -24 -32 3 -51 12 -9 18 -16 12 -16 -5 0 -15 5 -21
11 -7 7 -17 8 -25 3 -7 -5 -15 -9 -18 -10 -32 -6 -39 -18 -30 -54 0 -3 7 6 15
20 16 29 20 19 4 -11 -8 -16 -13 -18 -25 -9 -7 7 -11 16 -8 21 3 5 0 9 -6 9
-6 0 -8 5 -5 10 3 6 1 10 -4 10 -6 0 -11 -5 -11 -11 0 -5 -5 -7 -12 -3 -7 4
-8 3 -4 -5 4 -6 13 -8 19 -5 7 4 9 4 5 -1 -4 -4 -3 -14 3 -22 21 -24 -3 -14
-27 13 -13 14 -24 20 -24 14 0 -6 -4 -8 -10 -5 -5 3 -10 1 -10 -5 0 -7 6 -10
14 -7 9 3 21 -4 30 -19 9 -13 12 -24 7 -24 -5 0 -12 7 -15 17 -6 14 -8 14 -22
-3 -9 -10 -13 -14 -10 -8 3 7 -1 17 -9 24 -10 9 -15 9 -15 1 0 -6 4 -11 8 -11
4 0 8 -10 9 -22 2 -21 -1 -19 -26 11 -24 30 -30 32 -49 22 -27 -15 -28 -23 -1
-39 12 -8 18 -9 15 -4 -3 6 -3 12 1 15 5 2 3 2 -4 1 -18 -5 -25 13 -8 20 15 5
38 -13 55 -45 13 -23 7 -24 -15 -3 -13 13 -16 14 -15 3 4 -29 -1 -39 -19 -39
-25 0 -38 -20 -20 -31 11 -7 11 -9 1 -9 -7 0 -10 -5 -6 -12 4 -7 3 -8 -5 -4
-6 4 -8 12 -5 18 4 6 2 8 -4 4 -6 -3 -20 6 -31 20 -12 15 -21 22 -21 17 0 -5
9 -19 21 -32 21 -22 19 -45 -2 -24 -6 6 -19 9 -28 5 -14 -5 -14 -4 -2 11 7 9
9 17 3 17 -5 0 -12 -7 -16 -15 -3 -8 -10 -15 -16 -15 -7 0 -7 7 1 23 11 21 10
21 -6 5 -18 -17 -12 -42 8 -35 19 7 49 -13 43 -28 -3 -8 -1 -17 4 -20 6 -4 10
-10 10 -16 0 -5 -9 0 -20 11 -11 11 -20 25 -20 30 0 6 -5 10 -10 10 -7 0 -7
-6 -1 -19 6 -10 7 -21 4 -25 -13 -12 -11 -35 3 -40 16 -6 19 -26 3 -26 -5 0
-8 4 -5 9 3 5 -1 11 -8 14 -8 3 -17 1 -20 -6 -3 -9 -5 -8 -5 1 -1 7 -5 11 -11
7 -5 -3 -7 -13 -4 -23 5 -14 4 -15 -5 -2 -11 17 -51 23 -51 8 0 -5 8 -7 18 -4
12 4 19 1 19 -8 0 -8 -6 -12 -15 -8 -10 3 -13 1 -8 -6 4 -7 3 -12 -3 -12 -5 0
-12 6 -14 13 -4 9 -6 9 -6 -1 -1 -7 -5 -10 -11 -7 -5 3 -10 1 -10 -5 0 -6 7
-10 16 -8 10 2 19 -3 21 -10 3 -8 -1 -10 -14 -5 -16 6 -16 5 -4 -10 11 -14 11
-18 -4 -24 -16 -6 -16 -7 4 -15 19 -7 20 -10 9 -30 -7 -13 -12 -26 -13 -30 0
-15 -12 -16 -12 -1 0 10 7 24 14 32 12 11 10 15 -13 27 -17 9 -31 11 -37 5
-11 -11 -1 -31 15 -31 6 0 5 7 -3 18 -13 15 -12 16 4 3 12 -9 15 -17 8 -24 -7
-7 -15 -6 -24 2 -8 6 -22 9 -31 5 -21 -8 -10 -25 12 -18 16 5 16 5 0 -6 -9 -6
-15 -17 -12 -25 7 -17 -11 -20 -21 -4 -4 6 -13 8 -20 5 -7 -2 -18 1 -25 7 -10
9 -11 9 -6 0 4 -8 1 -13 -8 -13 -9 0 -16 -5 -16 -10 0 -7 6 -7 19 -1 14 8 20
7 25 -4 3 -8 11 -15 17 -15 8 0 7 6 -2 18 -13 15 -12 16 4 3 12 -9 15 -17 8
-24 -7 -7 -15 -6 -24 2 -17 14 -48 4 -45 -14 2 -7 -14 -28 -35 -47 l-39 -33
21 -19 c12 -11 21 -14 21 -7 0 6 -7 14 -15 17 -12 5 -12 8 0 20 7 8 20 14 27
14 8 0 6 -5 -5 -11 -16 -10 -16 -12 5 -41 12 -18 17 -28 10 -24 -7 4 -12 2
-12 -5 0 -7 -7 -4 -15 7 -14 19 -15 19 -34 -5 -10 -13 -23 -21 -29 -17 -7 4
-20 2 -30 -3 -17 -9 -19 -6 -18 25 1 18 4 34 8 34 5 0 8 5 8 11 0 8 -5 7 -15
-1 -9 -7 -13 -15 -10 -18 3 -3 -1 -12 -8 -20 -9 -13 -9 -14 1 -8 15 9 15 1 2
-24 -9 -16 -7 -18 17 -14 22 4 24 3 14 -10 -7 -8 -18 -14 -24 -12 -7 1 -9 1
-4 -1 4 -3 4 -10 0 -16 -7 -12 19 6 45 31 15 14 16 14 55 16 25 2 27 0 12 -10
-9 -7 -24 -10 -32 -7 -13 5 -13 2 -4 -15 15 -28 37 -42 27 -16 -4 10 -4 15 0
11 4 -4 13 1 20 11 11 14 15 15 26 3 11 -12 10 -13 -3 -8 -11 4 -20 -3 -28
-20 -9 -21 -14 -23 -26 -13 -12 10 -18 10 -30 0 -12 -10 -18 -10 -30 0 -9 8
-15 8 -15 2 0 -6 6 -13 13 -16 8 -3 4 -11 -12 -26 -13 -11 -21 -23 -18 -27 4
-3 22 12 42 33 19 21 35 34 35 27 0 -6 -5 -15 -10 -18 -8 -5 -7 -11 1 -21 6
-7 16 -11 22 -7 6 3 7 1 3 -5 -4 -7 -2 -12 5 -12 7 0 9 -3 6 -6 -4 -4 -17 0
-30 9 -17 11 -28 12 -38 5 -11 -8 -11 -9 3 -4 12 3 25 -5 40 -26 12 -18 17
-29 12 -25 -6 3 -15 -2 -21 -12 -9 -14 -7 -20 8 -29 12 -8 19 -8 19 -2 0 5 5
10 11 10 6 0 4 -9 -5 -21 -8 -12 -12 -27 -10 -34 3 -7 0 -16 -5 -20 -6 -3 -9
-11 -6 -16 4 -5 1 -9 -4 -9 -6 0 -11 -5 -11 -11 0 -5 5 -7 10 -4 6 3 10 2 10
-4 0 -5 -3 -11 -7 -14 -5 -2 -2 -2 4 -1 7 2 13 -2 13 -8 0 -6 9 -3 20 7 11 10
20 14 20 9 0 -5 5 -2 10 6 5 8 10 10 10 4 0 -15 -25 -36 -33 -27 -4 3 -7 1 -7
-6 0 -7 -6 -11 -12 -8 -21 7 -44 -10 -67 -48 -12 -20 -18 -34 -14 -32 5 2 16
-4 26 -15 9 -10 15 -18 12 -18 -3 0 3 -8 13 -19 15 -17 18 -17 30 -2 12 15 14
15 26 -1 7 -10 17 -14 21 -10 4 4 0 -8 -11 -26 -10 -17 -22 -32 -27 -32 -4 0
-5 5 -2 10 15 24 -17 7 -37 -20 -12 -16 -28 -30 -35 -30 -17 0 -17 17 -1 23 9
2 8 4 -1 3 -25 -2 -23 -23 5 -41 14 -9 23 -12 20 -6 -8 13 18 54 27 44 4 -3 7
-14 7 -24 0 -10 8 -23 18 -28 9 -6 12 -11 5 -11 -6 0 -19 10 -29 23 -10 13
-14 15 -11 5 4 -10 -3 -23 -19 -34 -13 -11 -24 -23 -24 -28 0 -5 11 0 23 13
15 14 30 19 41 15 14 -5 15 -9 5 -15 -8 -4 -10 -12 -5 -16 4 -4 16 2 26 14 10
13 21 23 25 23 4 0 2 -7 -5 -15 -10 -12 -10 -18 0 -30 9 -10 9 -15 1 -15 -6 0
-11 4 -11 10 0 5 -10 9 -22 7 -17 -1 -23 3 -21 17 1 12 -2 15 -9 8 -7 -7 -6
-17 2 -32 8 -15 8 -20 1 -16 -6 4 -11 2 -11 -3 0 -6 4 -11 8 -11 14 0 11 -38
-4 -44 -15 -6 -19 -42 -5 -50 4 -3 6 5 4 19 -4 19 -1 23 13 20 11 -2 23 -4 28
-4 6 -1 1 -7 -9 -15 -17 -12 -17 -16 -6 -30 10 -12 17 -14 25 -6 5 5 14 10 20
10 5 0 1 -6 -10 -14 -17 -13 -21 -12 -37 1 -16 15 -17 14 -11 -18 4 -23 3 -30
-4 -20 -7 9 -12 10 -16 2 -4 -6 -2 -11 4 -11 6 0 8 -5 4 -13 -5 -8 -2 -8 9 2
19 15 22 5 7 -19 -9 -13 -13 -11 -29 10 -18 22 -18 26 -4 42 16 18 9 42 -12
34 -7 -2 -22 2 -33 10 -18 12 -20 12 -17 -4 1 -11 9 -16 21 -13 18 3 18 2 1
-16 -20 -23 -22 -33 -5 -33 6 0 9 3 5 6 -7 7 24 44 36 44 5 0 3 -10 -5 -23
-12 -17 -13 -26 -4 -40 9 -15 7 -22 -13 -38 -13 -11 -21 -22 -17 -26 3 -3 6
-3 6 2 0 4 7 2 15 -5 15 -12 35 -6 35 11 0 5 -5 9 -11 9 -5 0 -7 -4 -4 -10 3
-5 2 -10 -4 -10 -16 0 -22 18 -9 27 7 4 22 8 33 9 11 1 25 2 30 4 27 7 44 -1
39 -17 -4 -13 -3 -14 3 -5 5 7 17 10 25 7 9 -4 19 -2 23 4 3 6 1 11 -6 11 -7
0 -10 3 -6 6 3 3 24 -5 47 -19 32 -19 37 -26 25 -31 -9 -3 -14 -2 -11 3 7 10
-19 23 -28 14 -7 -8 20 -33 36 -33 10 0 9 -3 -2 -10 -21 -14 -55 26 -39 46 8
10 8 14 1 14 -18 0 -23 -19 -11 -42 10 -18 8 -24 -7 -35 -18 -13 -30 -48 -12
-37 5 3 7 9 4 12 -3 3 3 12 14 19 17 12 24 12 38 2 9 -7 14 -10 11 -6 -4 5 4
20 17 34 20 22 27 24 37 13 10 -10 9 -12 -5 -7 -31 11 -24 -16 13 -50 39 -36
49 -39 66 -22 13 13 6 42 -8 34 -4 -3 -6 -12 -2 -20 3 -8 1 -15 -4 -15 -13 0
-12 33 1 42 6 4 18 -1 26 -10 15 -15 15 -19 -6 -41 -17 -18 -26 -21 -40 -13
-13 7 -24 6 -40 -4 -20 -14 -22 -13 -22 11 0 20 3 23 14 14 18 -15 18 -2 1 15
-11 11 -16 8 -30 -16 -9 -16 -11 -26 -5 -22 7 5 9 2 6 -8 -8 -19 21 -20 43 -2
13 12 18 12 34 0 16 -12 21 -11 36 8 14 17 20 19 30 9 16 -16 29 -17 29 -3 0
6 -4 9 -9 8 -5 -2 -8 2 -7 7 0 6 4 9 9 7 11 -3 8 16 -3 21 -6 3 -5 4 2 3 7 -1
13 -12 14 -23 2 -31 14 -45 34 -40 11 3 21 -2 24 -10 3 -8 1 -11 -4 -8 -6 3
-10 1 -10 -6 0 -8 -3 -9 -13 0 -8 6 -17 8 -20 4 -4 -3 -7 -1 -7 5 0 7 -5 12
-11 12 -8 0 -8 -5 1 -15 7 -8 16 -13 20 -10 5 3 10 1 12 -5 2 -6 18 -4 42 4
30 10 44 11 58 3 11 -8 14 -15 8 -21 -13 -13 -13 -26 1 -26 5 0 7 5 4 10 -3 6
0 10 7 10 8 0 23 7 34 16 19 15 18 15 -3 9 -12 -3 -24 -1 -27 4 -5 8 30 9 53
2 2 0 -2 -8 -9 -16 -7 -9 -10 -18 -6 -22 3 -4 13 2 21 13 8 10 15 13 15 7 0
-7 -11 -20 -25 -29 -26 -17 -33 -48 -14 -59 6 -4 8 -14 4 -23 -3 -9 -3 -13 1
-9 4 4 13 2 21 -4 20 -17 16 -1 -7 23 -20 22 -28 64 -10 53 6 -3 10 -13 10
-21 0 -8 5 -14 10 -14 7 0 7 6 0 19 -13 25 -13 28 4 34 10 4 13 1 10 -7 -7
-18 35 -14 47 5 5 8 9 9 9 3 0 -13 -30 -41 -39 -36 -3 2 -7 -2 -9 -10 -2 -8
-1 -9 5 -3 11 15 68 11 59 -4 -3 -5 -16 -7 -29 -5 -21 4 -21 4 -1 -5 12 -5 24
-16 27 -25 7 -18 27 -22 27 -5 0 5 -4 8 -9 5 -5 -3 -11 1 -15 9 -3 8 -1 17 4
20 4 3 10 0 12 -7 3 -7 7 -5 11 6 4 9 3 15 -1 12 -4 -2 -16 2 -27 10 -10 8
-14 14 -8 14 7 0 15 -5 18 -10 4 -6 10 -8 15 -5 4 3 18 -3 30 -13 21 -17 22
-19 5 -25 -13 -6 -16 -3 -11 10 4 10 3 14 -1 9 -4 -4 -8 -15 -9 -24 -3 -55 -3
-55 -19 -42 -10 9 -15 9 -15 1 0 -6 3 -11 8 -12 4 0 14 -2 23 -4 12 -2 15 3
12 16 -3 11 0 19 8 19 7 0 10 3 7 6 -3 3 5 17 18 31 26 28 53 21 33 -7 -9 -13
-10 -12 -5 3 10 31 -9 18 -22 -15 -12 -33 -10 -44 7 -34 6 4 7 14 4 24 -5 14
-4 15 8 6 14 -12 28 -11 64 1 18 6 18 5 3 -5 -10 -6 -18 -16 -18 -23 0 -8 3
-7 9 2 6 9 15 11 27 6 11 -4 25 -9 33 -11 8 -1 17 -8 21 -15 5 -7 18 -9 34 -5
37 9 40 9 44 -6 3 -9 1 -10 -5 -1 -6 8 -14 8 -33 -4 -14 -8 -17 -12 -7 -9 10
3 26 2 36 -4 14 -7 20 -4 29 15 8 16 17 23 27 19 8 -3 15 -8 15 -11 0 -3 -6
-3 -14 0 -8 3 -17 -1 -20 -9 -6 -15 13 -54 26 -54 11 0 10 18 -2 25 -5 3 -10
10 -10 16 0 5 8 1 18 -9 16 -16 27 -72 13 -72 -3 0 -12 -9 -18 -20 -9 -14 -10
-21 -1 -26 6 -4 8 -3 5 3 -4 6 2 18 13 28 16 15 22 15 35 5 8 -7 15 -8 15 -4
0 5 -9 15 -20 22 -11 7 -20 16 -20 20 0 10 60 35 67 28 4 -3 -1 -6 -9 -6 -23
0 -42 -26 -24 -33 21 -8 49 -2 54 12 3 10 0 10 -18 1 -12 -6 -24 -10 -26 -7
-2 2 7 9 21 15 21 10 27 9 31 -3 4 -8 11 -12 17 -8 6 4 7 1 2 -7 -6 -10 -4
-12 10 -7 9 4 23 3 30 -3 8 -7 17 -4 31 12 10 12 14 18 7 15 -7 -5 -9 0 -6 13
4 16 2 19 -11 14 -12 -4 -13 -11 -6 -24 7 -14 6 -18 -5 -16 -8 1 -18 6 -22 11
-5 4 -2 5 6 0 11 -6 13 -4 8 8 -4 10 0 20 11 26 9 6 13 11 7 12 -5 1 -14 2
-20 4 -5 1 -16 3 -22 3 -7 1 -13 7 -13 14 0 9 3 9 12 0 18 -18 28 -15 21 6 -4
9 5 3 20 -14 15 -18 27 -35 27 -38 0 -4 11 -23 24 -42 15 -23 26 -31 31 -24 4
6 14 9 22 6 8 -3 11 -2 8 3 -3 5 0 11 7 14 7 2 6 3 -2 2 -8 -2 -22 -6 -31 -9
-11 -5 -21 1 -32 17 -16 25 -16 25 16 23 18 0 35 -5 39 -11 5 -6 8 -5 8 3 0 6
5 12 11 12 5 0 7 -5 3 -12 -4 -7 -3 -8 5 -4 18 12 2 27 -25 22 -13 -3 -24 0
-24 5 0 5 -5 9 -11 9 -5 0 -7 -4 -4 -10 3 -5 1 -10 -5 -10 -7 0 -10 6 -7 14 3
7 0 19 -6 25 -8 8 -7 14 2 24 11 10 13 9 8 -5 -3 -10 -2 -20 3 -23 4 -3 10 0
12 7 7 19 -3 58 -12 53 -19 -12 -20 17 -1 41 12 15 21 22 21 17 0 -6 -7 -16
-15 -23 -17 -14 -21 -35 -5 -25 12 7 20 -11 23 -51 2 -17 8 -29 17 -30 9 0 10
1 3 3 -20 7 -15 18 11 32 13 7 29 24 36 37 7 13 18 20 24 17 8 -5 8 -3 0 8
-15 20 -26 51 -15 44 6 -3 14 2 19 12 9 15 13 14 40 -9 17 -14 28 -29 24 -33
-4 -5 -1 -5 6 -1 10 6 6 15 -17 35 -35 31 -38 46 -15 59 10 5 14 14 9 21 -5 9
-10 7 -20 -5 -12 -17 -14 -17 -29 -2 -23 23 -20 35 3 14 13 -12 20 -14 23 -5
5 15 48 23 48 8 0 -5 -5 -7 -12 -3 -7 5 -8 3 -3 -6 6 -10 11 -10 20 3 7 9 15
14 18 10 4 -3 7 -1 7 5 0 6 -4 14 -10 17 -5 3 -10 1 -10 -6 0 -8 -4 -8 -12 -1
-7 6 -17 10 -22 9 -5 -1 -15 7 -22 19 -12 18 -12 21 0 21 9 0 12 -7 8 -16 -3
-9 -2 -13 3 -9 4 4 14 3 21 -3 10 -8 19 -7 35 4 12 9 27 13 35 10 9 -3 12 4
12 25 -1 17 -6 29 -12 28 -6 -2 -8 -1 -3 1 4 3 4 10 1 16 -5 9 -4 9 6 0 7 -6
18 -9 25 -7 16 7 54 -46 48 -66 -4 -13 -3 -13 5 -1 11 15 -3 50 -25 64 -22 14
-15 29 7 17 13 -7 26 -7 36 -2 15 8 15 10 -1 16 -9 3 -21 4 -26 1 -5 -3 -18
-1 -30 6 -19 10 -21 9 -16 -5 4 -9 2 -16 -3 -16 -16 0 -11 26 7 41 9 8 14 9
10 3 -4 -7 0 -14 8 -18 8 -3 17 -1 20 5 4 5 10 7 15 4 4 -3 7 3 5 12 -2 10 -4
20 -4 22 -1 3 -8 -4 -17 -15 -14 -18 -15 -18 -4 4 13 27 24 28 36 2 7 -14 13
-17 24 -10 13 8 12 10 -3 10 -17 0 -17 1 0 24 10 13 23 21 28 18 6 -3 7 -2 3
3 -8 9 15 35 32 35 7 0 5 -8 -4 -22 -19 -27 -20 -38 -4 -38 6 0 9 3 5 6 -3 4
5 22 18 41 13 20 21 42 18 51 -5 11 -3 13 7 7 10 -6 12 -4 7 9 -5 13 -3 17 6
13 8 -3 20 -1 28 4 15 9 12 10 -31 13 -8 1 -16 10 -17 21 -2 17 -2 17 5 3 5
-12 11 -15 22 -8 9 5 19 5 27 -1 14 -12 36 -2 28 12 -4 5 -1 9 5 9 7 0 6 5 -2
14 -7 8 -16 12 -20 9 -5 -2 -8 1 -8 6 0 14 6 14 29 -1 14 -9 23 -8 42 5 13 10
19 17 13 17 -5 0 -15 -5 -22 -12 -17 -17 -44 9 -37 36 6 21 6 21 -13 -1 -19
-21 -20 -22 -25 -3 -3 14 -1 17 11 13 10 -4 13 -2 8 5 -3 6 -2 13 3 16 13 8
32 -19 26 -36 -4 -9 0 -15 10 -15 8 0 15 4 15 9 0 5 5 6 12 2 7 -5 8 -3 4 5
-5 8 -3 12 5 10 37 -5 42 1 23 23 -10 12 -14 18 -8 15 16 -9 27 22 14 39 -9 9
-6 15 9 24 12 6 21 7 21 3 0 -4 7 1 16 12 8 11 18 19 22 17 3 -2 8 2 10 10 2
9 0 8 -7 -2 -6 -8 -11 -11 -11 -6 0 5 -7 3 -15 -4 -8 -7 -15 -9 -15 -6 0 4
-13 -2 -30 -14 -16 -12 -30 -17 -30 -12 0 9 50 37 62 34 4 -1 7 7 5 18 -1 13
9 27 31 41 18 12 32 16 32 10 0 -7 -7 -14 -15 -17 -8 -4 -15 -11 -15 -16 0 -6
8 -4 17 3 15 12 16 12 10 -4 -4 -11 -3 -16 3 -12 6 3 10 2 10 -4 0 -5 -6 -11
-12 -14 -7 -2 -1 -4 13 -3 26 1 26 1 8 24 -10 13 -16 29 -13 37 10 26 -16 25
-65 -5 -28 -16 -51 -25 -51 -20 0 6 5 10 11 10 5 0 7 5 3 12 -4 7 -3 8 5 4 7
-5 29 4 52 20 38 26 40 27 54 8 11 -16 16 -17 27 -6 11 11 10 12 -6 6 -13 -5
-17 -4 -13 3 12 19 -25 24 -49 8 -13 -9 -24 -12 -25 -8 0 5 -2 18 -3 30 -2 15
3 23 13 24 10 0 12 2 4 6 -7 2 -13 12 -12 21 0 11 2 12 6 5 2 -7 9 -13 14 -13
6 0 7 5 4 10 -3 5 -1 10 4 10 6 0 11 5 11 11 0 8 -4 8 -14 0 -9 -7 -17 -8 -20
-2 -3 5 0 11 6 14 10 4 10 7 0 18 -7 8 -13 10 -12 4 2 -5 1 -13 0 -17 -1 -5
-3 -11 -4 -15 -7 -30 -19 -53 -27 -53 -5 0 -9 5 -9 10 0 6 5 10 11 10 5 0 7 5
4 10 -3 6 -2 10 3 10 5 0 9 7 9 15 0 9 -6 14 -12 11 -6 -2 -17 5 -23 15 -7 10
-8 19 -3 19 5 0 11 -5 13 -12 2 -6 12 -9 21 -5 23 8 22 28 0 21 -15 -5 -16 -4
-3 5 11 8 22 3 47 -21 18 -18 33 -28 33 -24 0 5 -10 18 -22 29 -16 13 -19 21
-10 24 6 3 12 9 12 15 0 7 -4 7 -12 0 -14 -10 -42 -9 -70 3 -24 10 -23 22 3
36 17 9 20 8 14 -2 -6 -9 -3 -11 8 -6 9 3 19 1 23 -5 5 -7 2 -8 -7 -3 -11 6
-12 5 -2 -5 18 -20 29 -3 11 17 -16 19 -23 67 -8 58 18 -11 22 19 5 31 -10 8
-16 17 -12 20 8 8 56 -28 57 -42 0 -16 30 -40 30 -25 0 6 -4 11 -10 11 -5 0
-10 6 -10 13 0 21 -60 61 -73 48 -13 -13 -50 5 -41 21 5 8 1 9 -10 5 -9 -4
-15 -3 -12 2 3 5 -1 11 -9 15 -16 6 -10 36 7 36 6 0 4 -8 -3 -17 -12 -15 -12
-16 4 -10 11 4 16 3 12 -3 -3 -6 -1 -11 4 -11 6 -1 17 -2 24 -3 16 -2 26 35
15 57 -7 13 -13 15 -28 7 -14 -7 -23 -6 -34 6 -17 16 -13 34 7 34 7 0 6 -4 -3
-10 -8 -5 -13 -10 -10 -11 3 0 16 -2 29 -5 20 -4 22 -2 11 11 -24 29 1 15 30
-17 24 -26 27 -35 17 -47 -6 -9 -1 -7 13 4 39 32 50 43 50 51 0 4 -11 -3 -24
-15 l-23 -22 -21 33 c-20 32 -21 48 -1 48 6 0 7 -4 4 -10 -3 -5 1 -20 9 -32 9
-12 16 -17 16 -11 0 7 -4 15 -10 18 -5 3 -10 11 -10 17 0 6 9 3 20 -7 11 -10
20 -13 20 -7 0 7 -5 12 -11 12 -8 0 -8 5 1 15 9 10 9 15 1 15 -6 0 -11 -5 -11
-12 0 -6 -11 -1 -25 12 -13 12 -23 26 -21 29 6 9 -21 31 -28 23 -4 -3 -4 2 0
12 6 16 8 17 16 2 5 -9 14 -16 19 -16 6 0 3 10 -5 21 -15 22 -11 53 5 43 5 -3
9 0 9 5 0 6 -7 11 -15 11 -8 0 -15 -4 -15 -10 0 -5 -6 -10 -12 -10 -7 1 -2 10
11 20 16 14 19 20 8 20 -8 0 -20 -7 -27 -15 -7 -9 -15 -13 -17 -11 -3 2 4 13
15 24 11 11 22 18 25 16 2 -3 7 2 11 11 3 9 2 14 -3 11 -9 -6 -51 26 -51 39 0
5 12 -2 27 -16 21 -19 25 -20 20 -6 -4 10 -7 23 -7 28 0 6 -5 7 -12 3 -7 -5
-8 -3 -4 5 5 7 15 10 23 6 13 -4 14 -3 3 10 -7 8 -8 15 -2 15 5 0 17 -10 26
-22 16 -21 16 -21 0 8 -15 27 -19 30 -39 20 -13 -6 -21 -14 -19 -18 3 -4 -2
-5 -11 -1 -9 3 -12 9 -7 12 5 3 8 14 6 24 -1 9 2 15 7 11 5 -3 7 -10 4 -15 -3
-5 1 -6 9 -3 9 3 16 11 16 17 0 6 -3 7 -7 4 -3 -4 -17 5 -30 19 -15 17 -23 20
-23 10 0 -8 4 -16 8 -18 5 -1 0 -21 -10 -43 -16 -33 -18 -35 -13 -11 5 26 4
28 -9 17 -20 -17 -21 -5 -2 15 11 11 16 11 20 1 3 -6 3 3 0 22 -4 23 -2 37 7
43 11 8 11 9 -1 6 -8 -3 -17 -15 -20 -29 -5 -21 -7 -21 -13 -6 -4 11 0 24 11
35 15 15 16 21 6 30 -18 16 -29 15 -15 -1 11 -14 5 -27 -11 -27 -5 0 -6 6 -2
13 6 9 4 9 -8 -1 -10 -8 -19 -9 -22 -4 -3 6 1 13 10 16 9 4 14 9 11 13 -4 3
-13 0 -22 -7 -12 -10 -13 -16 -4 -26 6 -8 15 -12 19 -9 5 3 11 1 15 -5 11 -18
-22 -10 -40 10 -15 16 -16 22 -5 35 9 11 9 15 2 13 -6 -2 -22 8 -34 22 -13 14
-22 24 -21 22 3 -6 -24 -32 -32 -32 -3 0 -1 9 5 21 7 11 10 23 7 25 -2 2 -9
-7 -15 -21 -14 -31 2 -43 28 -20 17 15 18 15 16 -8 -1 -18 -5 -23 -21 -19 -11
3 -25 9 -31 13 -6 5 -14 6 -17 2 -4 -3 1 -12 11 -19 19 -15 5 -19 -16 -5 -11
6 -9 15 7 45 11 20 17 36 12 36 -4 0 -13 -11 -19 -25 -6 -14 -16 -25 -22 -25
-6 0 -8 -4 -5 -10 3 -5 0 -7 -8 -4 -8 3 -17 1 -20 -4 -3 -4 10 -14 29 -21 35
-13 42 -25 22 -37 -7 -4 -8 -3 -4 4 4 7 -9 19 -34 31 -22 10 -42 15 -46 10 -3
-5 -10 -9 -17 -9 -15 0 5 20 24 24 33 6 65 29 66 47 1 10 -2 19 -8 19 -5 0 -8
-3 -8 -7 4 -23 -3 -25 -17 -5 -8 12 -21 22 -27 22 -7 0 -4 -7 7 -15 22 -16 15
-48 -9 -39 -8 3 -15 11 -15 16 0 6 6 5 15 -2 10 -8 15 -9 15 -2 0 6 -6 15 -13
19 -8 4 -19 17 -26 28 -10 18 -11 16 -6 -13 5 -24 3 -34 -9 -38 -21 -8 -10
-25 12 -18 14 5 15 4 2 -5 -12 -9 -20 -6 -36 13 -20 22 -23 23 -38 8 -10 -11
-16 -12 -16 -4 0 7 5 12 11 12 8 0 8 4 0 14 -9 10 -9 16 -1 21 6 4 14 4 17 1
4 -3 1 -6 -6 -6 -7 0 -10 -4 -6 -10 3 -5 12 -7 20 -3 9 3 15 -1 15 -11 0 -10
6 -13 15 -10 8 4 15 13 15 21 0 8 -4 11 -10 8 -5 -3 -10 -1 -10 5 0 6 -5 8
-12 4 -7 -4 -8 -3 -4 5 4 6 12 9 17 5 5 -3 8 0 7 6 -2 7 13 20 32 31 21 11 28
19 17 19 -9 0 -17 5 -17 10 0 6 -5 10 -11 10 -8 0 -8 -4 0 -14 9 -11 6 -17
-14 -30 -14 -9 -31 -14 -37 -10 -6 4 -8 3 -5 -3 4 -6 -4 -8 -20 -5 -18 3 -30
-1 -40 -13 -7 -11 -13 -14 -13 -8 0 7 5 15 11 18 6 4 8 13 5 21 -3 8 -1 14 3
14 5 0 11 -5 13 -12 3 -8 6 -7 10 3 4 10 -1 15 -14 16 -12 1 -22 -6 -25 -18
-6 -21 -25 -27 -22 -6 3 24 -1 37 -12 37 -5 0 -7 -4 -4 -10 8 -13 3 -13 -30 0
-26 10 -27 11 -11 35 9 14 13 25 9 25 -11 0 -35 -39 -29 -48 7 -12 -12 -38
-21 -29 -4 5 -3 11 2 15 12 9 15 52 3 52 -4 0 -8 -10 -8 -22 0 -20 -1 -20 -19
-4 -11 10 -25 15 -30 11 -6 -3 -11 -1 -11 4 0 6 5 11 12 11 14 0 -22 29 -36
30 -6 0 -2 -6 7 -12 12 -9 14 -17 7 -28 -8 -13 -10 -12 -10 3 0 11 -8 17 -23
17 -18 0 -23 5 -22 22 1 12 9 27 18 32 14 9 22 5 43 -19 l26 -30 -22 32 c-12
19 -18 38 -14 45 5 7 -8 1 -28 -14 -20 -15 -38 -24 -41 -20 -2 4 -2 2 -1 -5 2
-7 -1 -15 -6 -18 -6 -4 -11 0 -11 7 -1 7 -2 19 -3 27 0 8 -7 15 -14 17 -7 1
-8 0 -2 -3 5 -2 10 -9 10 -14 0 -6 -5 -7 -12 -3 -6 4 -8 3 -5 -3 4 -6 0 -14
-9 -17 -9 -3 -14 -12 -11 -19 10 -25 -8 -37 -22 -16 -7 12 -8 18 -3 15 6 -3
12 1 16 9 4 11 -2 15 -24 15 -17 0 -31 3 -31 8 -6 35 -4 53 7 63 11 9 16 6 23
-12 5 -13 10 -19 10 -13 1 7 -6 25 -14 40 -8 16 -15 23 -15 16 0 -7 -9 -22
-20 -34 -15 -17 -17 -25 -8 -42 9 -17 8 -19 -3 -8 -17 16 -30 15 -23 -2 6 -15
-33 -42 -44 -31 -3 3 4 8 16 12 12 3 22 10 22 15 0 5 -4 7 -9 4 -5 -3 -15 2
-22 12 -13 16 -13 16 6 2 18 -14 19 -14 7 2 -9 11 -10 18 -2 23 5 3 10 1 10
-4 0 -6 5 -11 12 -11 9 0 9 3 0 12 -17 17 -15 33 3 18 10 -9 15 -9 15 -1 0 6
-5 11 -11 11 -5 0 -8 4 -4 10 3 5 12 7 19 4 7 -3 16 2 20 12 5 14 4 15 -9 4
-14 -11 -19 -7 -16 13 1 10 -2 9 -24 -6z m15 -11 c0 -3 -4 -8 -10 -11 -5 -3
-10 -1 -10 4 0 6 5 11 10 11 6 0 10 -2 10 -4z m-76 -92 c3 -8 2 -12 -4 -9 -6
3 -10 1 -10 -6 0 -7 -2 -10 -5 -7 -5 5 4 38 10 38 2 0 6 -7 9 -16z m24 -9 c-3
-3 -9 2 -12 12 -6 14 -5 15 5 6 7 -7 10 -15 7 -18z m-75 8 c-20 -7 -15 -23 5
-16 14 5 15 3 5 -8 -10 -9 -16 -10 -24 -2 -13 13 -4 33 14 32 9 0 9 -2 0 -6z
m157 -23 c0 -5 -4 -10 -10 -10 -5 0 -10 5 -10 10 0 6 5 10 10 10 6 0 10 -4 10
-10z m105 0 c-3 -5 -1 -10 4 -10 6 0 11 -7 11 -15 0 -12 -3 -12 -18 3 -12 11
-14 20 -8 24 15 10 18 10 11 -2z m37 -22 c-7 -7 -12 -8 -12 -2 0 6 3 14 7 17
3 4 9 5 12 2 2 -3 -1 -11 -7 -17z m-382 0 c0 -11 -12 -10 -30 2 -12 7 -10 9 8
7 12 0 22 -5 22 -9z m60 2 c0 -5 -4 -10 -10 -10 -5 0 -10 5 -10 10 0 6 5 10
10 10 6 0 10 -4 10 -10z m64 -6 c5 -14 4 -15 -8 -5 -10 8 -16 9 -21 1 -3 -5
-11 -10 -18 -10 -11 0 22 29 34 30 4 0 10 -7 13 -16z m81 6 c-3 -5 -11 -10
-16 -10 -6 0 -7 5 -4 10 3 6 11 10 16 10 6 0 7 -4 4 -10z m65 6 c0 -3 -4 -8
-10 -11 -5 -3 -10 -1 -10 4 0 6 5 11 10 11 6 0 10 -2 10 -4z m-103 -12 c-3 -3
-12 -4 -19 -1 -8 3 -5 6 6 6 11 1 17 -2 13 -5z m70 -13 c-1 -14 -5 -17 -13
-10 -8 7 -14 6 -17 -1 -3 -6 -4 -5 -2 2 1 7 8 12 14 11 6 -2 11 2 11 7 0 6 2
10 4 10 3 0 4 -9 3 -19z m-321 -19 c1 -12 -6 -27 -15 -34 -14 -12 -14 -11 -2
5 11 14 11 17 0 18 -10 0 -11 2 -1 6 6 2 12 9 12 14 0 4 -7 5 -17 2 -11 -4
-14 -3 -9 6 11 18 31 8 32 -17z m59 19 c3 -5 0 -13 -6 -17 -8 -4 -9 -3 -5 4
11 19 -5 14 -21 -5 -13 -16 -13 -16 -3 5 11 23 25 28 35 13z m60 -1 c3 -6 -1
-7 -9 -4 -18 7 -21 14 -7 14 6 0 13 -4 16 -10z m240 0 c-3 -5 -1 -10 6 -10 7
0 10 -2 7 -5 -3 -3 -13 -2 -22 1 -14 5 -15 9 -4 15 17 11 20 11 13 -1z m61 -6
c-4 -12 -2 -15 9 -10 8 3 15 1 15 -4 0 -13 -27 -13 -35 0 -3 6 -3 15 0 20 10
16 18 12 11 -6z m61 0 c-3 -3 -12 -4 -19 -1 -8 3 -5 6 6 6 11 1 17 -2 13 -5z
m29 -31 c-3 -4 -6 -1 -6 6 0 7 -4 9 -10 6 -6 -4 -7 1 -3 11 6 15 7 15 15 -1 6
-9 7 -19 4 -22z m-107 -6 c0 -9 -2 -9 -5 0 -3 7 -13 9 -22 6 -14 -4 -14 -3 -2
5 16 12 30 7 29 -11z m168 -2 c-9 -7 -14 -15 -10 -18 3 -4 -2 -9 -11 -13 -9
-3 -13 -11 -9 -17 4 -6 1 -7 -7 -2 -10 6 -10 11 3 20 9 7 14 15 10 18 -3 4 2
9 11 13 9 3 13 11 9 17 -4 6 -1 7 7 2 10 -6 10 -11 -3 -20z m-620 -13 c-10
-10 -15 -22 -12 -25 3 -4 -1 -3 -7 3 -20 17 -31 11 -17 -7 13 -17 13 -17 -5
-3 -18 14 -19 13 -13 -2 9 -24 -18 -44 -31 -22 -6 11 -11 13 -16 5 -9 -14 -26
-15 -26 -1 0 6 5 9 11 8 6 -2 14 3 17 11 3 9 0 11 -8 6 -9 -6 -11 -4 -5 5 6
10 11 9 22 -5 7 -11 13 -23 13 -28 0 -4 4 -6 10 -2 5 3 7 12 4 19 -6 16 21 40
35 31 6 -3 16 3 23 14 7 11 14 18 17 16 2 -3 -3 -13 -12 -23z m536 14 c16 -13
16 -14 1 -20 -9 -4 -19 -4 -22 -1 -3 3 0 5 7 5 7 0 10 4 6 10 -3 5 -13 6 -22
3 -11 -4 -14 -3 -9 5 9 15 17 15 39 -2z m37 -17 c-12 -16 -24 -28 -27 -25 -3
3 2 12 11 21 9 9 16 21 16 26 0 5 5 9 11 9 6 0 1 -14 -11 -31z m111 -26 c-12
-20 -14 -14 -5 12 4 9 9 14 11 11 3 -2 0 -13 -6 -23z m44 9 c-3 -3 -11 0 -18
7 -9 10 -8 11 6 5 10 -3 15 -9 12 -12z m-76 -5 c6 -8 8 -17 4 -20 -7 -7 11
-11 37 -8 13 2 13 0 1 -8 -17 -11 -52 4 -48 21 1 6 -3 12 -10 15 -6 2 -10 -4
-9 -14 2 -10 1 -12 -1 -5 -3 7 -10 9 -16 5 -7 -4 -6 1 2 10 16 21 25 21 40 4z
m96 -25 c0 -6 -4 -12 -9 -11 -5 0 -13 -5 -18 -13 -8 -10 -9 -9 -4 4 3 11 -2
21 -12 27 -14 8 -11 9 13 8 17 -1 30 -8 30 -15z m-893 -20 c-7 -2 -9 -9 -5
-15 3 -7 3 -9 -2 -5 -4 4 -14 3 -21 -3 -9 -8 -18 -7 -31 1 -17 11 -17 11 1 6
20 -7 49 11 40 25 -3 5 3 6 12 2 11 -4 13 -8 6 -11z m43 -25 c6 -5 3 -7 -7 -3
-10 3 -18 1 -18 -4 0 -6 -5 -10 -10 -10 -6 0 -5 8 2 20 7 10 15 16 18 12 3 -4
10 -11 15 -15z m905 4 c0 -10 -3 -12 -8 -5 -4 6 -20 10 -37 8 -19 -2 -25 0
-16 5 23 15 61 10 61 -8z m-965 -32 c-5 -15 -4 -19 4 -15 6 4 11 5 11 2 0 -16
-21 -13 -30 5 -8 15 -9 19 -1 15 6 -4 11 -2 11 3 0 6 3 11 6 11 3 0 2 -10 -1
-21z m1015 3 c0 -5 -7 -9 -15 -9 -8 0 -12 4 -9 9 3 4 9 8 15 8 5 0 9 -4 9 -8z
m249 -34 c-6 -11 -13 -17 -16 -14 -3 3 -11 -1 -17 -9 -7 -9 -16 -12 -25 -6
-21 13 -3 32 26 27 23 -5 24 -3 18 21 -5 23 -4 25 9 14 12 -10 13 -18 5 -33z
m-1294 22 c3 -5 1 -10 -4 -10 -6 0 -11 5 -11 10 0 6 2 10 4 10 3 0 8 -4 11
-10z m-20 -20 c3 -5 13 -7 23 -4 14 5 14 4 3 -4 -10 -7 -20 -6 -33 1 -15 10
-21 9 -28 -3 -5 -8 -12 -11 -17 -7 -8 9 15 27 34 27 6 0 14 -4 18 -10z m1160
-18 c-3 -3 -11 0 -18 7 -9 10 -8 11 6 5 10 -3 15 -9 12 -12z m-672 -13 c204
-67 479 -170 547 -205 101 -50 97 -45 105 -164 35 -563 35 -550 3 -595 -25
-35 -75 -91 -201 -225 -44 -47 -118 -134 -165 -195 -46 -60 -88 -114 -92 -118
-4 -5 -36 3 -71 16 -324 127 -556 221 -586 238 -20 12 -58 32 -84 46 l-48 24
-1 277 c0 152 -2 304 -5 337 -6 107 -8 104 194 306 192 192 293 279 324 279
10 0 46 -9 80 -21z m-489 2 c7 -11 -18 -33 -27 -24 -4 3 -8 1 -8 -5 -3 -27 -4
-31 -12 -39 -5 -4 -8 -3 -7 2 5 22 -1 29 -11 15 -7 -10 -9 -11 -7 -2 2 8 8 13
13 13 6 0 16 11 23 25 13 25 27 31 36 15z m1341 -19 c-2 -3 3 -11 13 -18 9 -7
13 -13 7 -13 -20 -1 -58 36 -51 48 6 9 11 9 22 0 8 -6 12 -14 9 -17z m-1415
-2 c0 -5 -4 -10 -10 -10 -5 0 -10 5 -10 10 0 6 5 10 10 10 6 0 10 -4 10 -10z
m1320 0 c0 -5 -2 -10 -4 -10 -3 0 -8 5 -11 10 -3 6 -1 10 4 10 6 0 11 -4 11
-10z m60 -25 c0 -5 -5 -3 -10 5 -5 8 -10 20 -10 25 0 6 5 3 10 -5 5 -8 10 -19
10 -25z m-30 10 c7 -9 8 -15 2 -15 -5 0 -12 7 -16 15 -3 8 -4 15 -2 15 2 0 9
-7 16 -15z m75 -41 c9 -14 14 -28 11 -32 -3 -3 -6 -1 -6 4 0 6 -9 20 -20 32
-12 12 -17 22 -12 22 6 0 17 -12 27 -26z m33 12 c-7 -8 -15 -12 -17 -11 -5 6
10 25 20 25 5 0 4 -6 -3 -14z m-1498 -16 c0 -5 7 -10 15 -10 8 0 15 -4 15 -10
0 -5 -6 -7 -14 -4 -8 3 -17 1 -21 -5 -8 -14 -42 -14 -50 -1 -3 6 1 7 9 4 9 -3
23 -3 32 0 13 5 14 9 4 21 -9 10 -9 15 -1 15 6 0 11 -4 11 -10z m1560 -34 c0
-2 -7 -9 -15 -16 -13 -11 -14 -10 -9 4 5 14 24 23 24 12z m-1609 -21 c5 4 6
-1 2 -10 -5 -13 -7 -14 -14 -3 -5 7 -8 18 -8 23 0 6 3 4 6 -3 2 -6 9 -10 14
-7z m1569 -5 c0 -5 6 -10 13 -10 19 0 50 -37 42 -50 -3 -5 -10 -8 -15 -5 -5 3
-12 -4 -15 -16 -4 -11 -9 -18 -12 -16 -8 9 18 48 28 42 5 -4 9 -2 9 3 0 17
-13 22 -29 9 -14 -11 -14 -10 -2 6 11 14 11 17 -2 17 -8 0 -20 7 -27 15 -9 10
-9 15 -1 15 6 0 11 -4 11 -10z m-1568 -34 c7 4 8 2 4 -5 -9 -14 -36 3 -36 23
0 6 5 3 11 -7 6 -9 15 -14 21 -11z m-89 -63 c-7 -2 -19 -2 -25 0 -7 3 -2 5 12
5 14 0 19 -2 13 -5z m1712 -23 c13 -6 15 -9 5 -9 -8 0 -22 4 -30 9 -18 12 -2
12 25 0z m-1744 -42 c-10 -11 -11 -9 -6 7 7 20 6 20 -9 1 -9 -11 -16 -15 -16
-10 0 18 23 35 34 24 7 -7 6 -14 -3 -22z m1723 23 c3 -5 -2 -15 -12 -22 -16
-13 -16 -13 -2 5 14 18 13 19 -3 13 -11 -4 -16 -3 -12 3 8 12 22 13 29 1z
m-1794 -21 c0 -5 -4 -10 -10 -10 -5 0 -10 5 -10 10 0 6 5 10 10 10 6 0 10 -4
10 -10z m1806 -9 c-3 -5 4 -11 15 -14 12 -3 18 -10 14 -16 -3 -6 1 -11 9 -11
9 0 16 -5 16 -10 0 -7 -7 -7 -20 0 -11 6 -18 15 -15 19 2 5 -5 11 -16 14 -15
4 -19 2 -15 -9 3 -8 2 -13 -3 -9 -5 3 -11 0 -13 -7 -3 -7 -7 -4 -12 7 -4 11
-4 16 0 12 4 -4 13 2 21 13 14 19 30 29 19 11z m-1773 -8 c3 -5 0 -17 -4 -28
-9 -18 -9 -18 -5 3 6 30 -12 28 -24 -4 -6 -14 -14 -22 -20 -19 -5 3 -10 -1
-10 -9 0 -19 -16 -21 -26 -4 -4 7 -3 8 4 4 11 -7 16 5 13 31 -1 6 4 15 10 19
9 5 10 2 6 -9 -3 -9 -2 -19 3 -22 6 -4 10 0 10 7 0 25 33 48 43 31z m1787 -55
c0 -6 -3 -8 -6 -5 -4 3 -16 2 -28 -4 -20 -10 -20 -10 -2 5 24 19 36 20 36 4z
m-1819 -11 c-6 -8 -7 -18 -3 -22 4 -5 1 -5 -6 -1 -10 6 -10 11 -1 22 6 8 14
14 16 14 3 0 0 -6 -6 -13z m-23 -42 c-3 -3 -9 2 -12 12 -6 14 -5 15 5 6 7 -7
10 -15 7 -18z m-58 -9 c0 -3 -4 -8 -10 -11 -5 -3 -10 -1 -10 4 0 6 5 11 10 11
6 0 10 -2 10 -4z m55 -15 c3 -5 0 -13 -6 -17 -8 -5 -9 -3 -4 6 6 10 4 12 -9 7
-10 -4 -15 -3 -11 3 8 13 22 13 30 1z m1867 -16 c-8 -16 -9 -16 -15 -1 -4 10
-3 15 3 11 6 -3 10 -1 10 6 0 7 3 10 6 6 3 -3 2 -13 -4 -22z m-1867 -35 c-3
-5 -12 -10 -18 -10 -7 0 -6 4 3 10 19 12 23 12 15 0z m-32 -50 c-9 -14 -9 -20
-1 -22 7 -3 5 -7 -6 -11 -9 -4 -15 -3 -12 2 7 10 -23 25 -43 22 -7 -1 -10 2
-6 9 4 6 13 9 20 6 7 -2 19 1 26 7 8 8 8 5 -1 -7 -13 -17 -13 -19 0 -14 8 3
15 15 14 27 0 15 2 19 10 11 7 -7 7 -16 -1 -30z m1849 20 c-2 -7 3 -10 12 -7
9 4 18 2 20 -2 3 -5 19 -11 36 -14 31 -7 42 -24 15 -24 -8 0 -12 4 -9 9 3 4
-4 8 -15 8 -11 0 -23 5 -26 10 -4 7 -12 7 -25 0 -15 -8 -18 -6 -16 8 2 9 -2
21 -8 25 -7 6 -6 7 4 4 8 -2 14 -10 12 -17z m28 -40 c0 -5 -2 -10 -4 -10 -3 0
-8 5 -11 10 -3 6 -1 10 4 10 6 0 11 -4 11 -10z m25 -47 c-11 -10 -14 -11 -7
-3 17 20 15 35 -3 20 -10 -9 -15 -9 -15 -1 0 6 5 11 11 11 5 0 7 6 3 13 -4 6
2 4 12 -5 18 -18 18 -18 -1 -35z m-1885 22 c-7 -9 -15 -13 -19 -10 -3 3 1 10
9 15 21 14 24 12 10 -5z m-34 -20 c-3 -8 -1 -15 4 -15 5 0 14 -10 21 -21 6
-13 7 -19 1 -15 -6 3 -13 0 -16 -6 -3 -7 -3 -2 0 11 3 13 2 21 -3 18 -5 -3
-15 3 -22 15 -7 11 -8 17 -2 13 6 -3 11 -1 11 4 0 6 3 11 6 11 3 0 4 -7 0 -15z
m1874 -5 c-12 -22 -21 -26 -17 -7 2 10 17 26 25 27 1 0 -2 -9 -8 -20z m-1830
0 c0 -5 -5 -10 -11 -10 -5 0 -7 5 -4 10 3 6 8 10 11 10 2 0 4 -4 4 -10z m1841
-27 c-12 -20 -14 -14 -5 12 4 9 9 14 11 11 3 -2 0 -13 -6 -23z m-1901 -7 c0
-2 -7 -6 -15 -10 -8 -3 -15 -1 -15 4 0 6 7 10 15 10 8 0 15 -2 15 -4z m1890
-26 c0 -5 -2 -10 -4 -10 -3 0 -8 5 -11 10 -3 6 -1 10 4 10 6 0 11 -4 11 -10z
m-1825 -10 c4 -6 -1 -7 -11 -3 -11 4 -15 3 -10 -5 7 -11 -31 -28 -41 -18 -4 3
1 6 9 6 9 0 18 7 22 15 6 17 22 20 31 5z m1840 -9 c-3 -6 -11 -11 -16 -11 -5
0 -4 6 3 14 14 16 24 13 13 -3z m-1838 -36 c0 -8 -4 -12 -9 -9 -4 3 -8 9 -8
15 0 5 4 9 8 9 5 0 9 -7 9 -15z m-68 -32 c-12 -14 -11 -15 11 -9 22 6 22 5 7
-4 -10 -7 -21 -9 -25 -6 -10 10 -11 37 -1 30 5 -3 9 3 10 13 0 11 3 13 6 5 3
-7 -1 -20 -8 -29z m36 27 c-3 -5 -1 -10 4 -10 6 0 11 -5 11 -11 0 -8 -5 -8
-15 1 -13 11 -12 30 1 30 3 0 2 -4 -1 -10z m1872 3 c-4 -3 1 -12 11 -19 9 -8
12 -14 5 -14 -6 0 -15 5 -18 10 -4 6 -12 7 -18 3 -7 -4 -6 0 2 10 7 9 16 17
19 17 3 0 2 -3 -1 -7z m5 -51 c-8 -2 -7 -10 4 -27 14 -22 14 -24 -6 -35 -12
-6 -24 -9 -28 -6 -3 3 0 6 7 6 7 0 9 4 6 10 -4 6 1 7 11 3 14 -5 15 -3 5 15
-7 12 -17 22 -24 23 -9 0 -9 2 1 6 6 2 10 9 7 14 -4 5 2 6 11 2 11 -4 13 -8 6
-11z m-1845 -39 c1 -22 -1 -24 -8 -10 -6 9 -7 22 -4 27 9 14 10 13 12 -17z
m-77 -18 c0 -8 -8 -16 -17 -16 -17 -1 -17 -2 0 -6 9 -2 17 -8 18 -11 5 -42 4
-52 -2 -52 -5 0 -6 -8 -2 -17 3 -10 -8 -3 -25 16 -27 29 -30 37 -20 55 9 17
36 45 46 46 1 0 2 -7 2 -15z m48 -24 c-15 -25 -24 -26 -32 -6 -7 19 23 50 36
37 6 -6 5 -18 -4 -31z m1902 9 c-13 -8 -12 -10 4 -10 11 0 17 -3 13 -6 -3 -3
-15 -3 -28 1 -17 6 -19 9 -8 16 8 5 19 9 24 9 6 0 3 -5 -5 -10z m-1868 -28
c-7 -2 -10 -8 -7 -13 4 -5 -2 -6 -11 -2 -11 4 -13 8 -6 11 7 2 10 8 7 13 -4 5
2 6 11 2 11 -4 13 -8 6 -11z m1838 -1 c0 -5 -7 -12 -16 -15 -14 -5 -15 -4 -4
9 14 17 20 19 20 6z m-1852 -42 c18 -29 9 -34 -25 -14 -26 15 -26 15 -3 9 22
-6 23 -5 11 10 -7 9 -9 16 -5 16 5 0 15 -9 22 -21z m1852 -20 c0 -12 -29 -18
-35 -8 -4 5 -1 8 7 7 8 -2 12 5 10 17 -2 16 -1 17 7 5 6 -8 11 -18 11 -21z
m-1830 -23 c0 -2 -8 -10 -17 -17 -16 -13 -17 -12 -4 4 13 16 21 21 21 13z
m1797 -32 c-3 -3 -12 -4 -19 -1 -8 3 -5 6 6 6 11 1 17 -2 13 -5z m-1808 -17
c8 -11 5 -19 -12 -34 -33 -30 -45 -35 -53 -22 -4 7 -3 9 3 6 13 -8 65 31 58
44 -4 5 -11 9 -16 9 -6 0 -8 -4 -4 -9 3 -6 -4 -15 -16 -21 -17 -10 -24 -9 -38
6 -15 17 -15 17 1 5 12 -9 22 -10 35 -2 10 6 14 11 10 11 -11 0 2 20 12 20 5
0 14 -6 20 -13z m1841 -8 c0 -12 -27 -12 -35 1 -4 6 1 7 11 3 13 -5 15 -3 9 7
-5 9 -4 11 3 6 7 -4 12 -11 12 -17z m-65 -9 c3 -5 1 -10 -4 -10 -6 0 -11 5
-11 10 0 6 2 10 4 10 3 0 8 -4 11 -10z m37 -14 c6 4 5 -2 -1 -15 -14 -25 -23
-28 -14 -4 4 11 3 14 -5 9 -8 -5 -10 -1 -5 10 4 11 8 13 11 6 2 -7 8 -9 14 -6z
m28 -26 c0 -5 -2 -10 -4 -10 -3 0 -8 5 -11 10 -3 6 -1 10 4 10 6 0 11 -4 11
-10z m-1845 -10 c3 -5 1 -10 -4 -10 -6 0 -11 5 -11 10 0 6 2 10 4 10 3 0 8 -4
11 -10z m1723 -40 c10 -1 2 -7 -17 -16 -19 -8 -36 -12 -38 -10 -3 2 5 7 16 11
11 3 19 11 17 18 -1 7 -1 9 1 5 3 -5 12 -8 21 -8z m-1718 -4 c0 -3 -4 -8 -10
-11 -5 -3 -10 -1 -10 4 0 6 5 11 10 11 6 0 10 -2 10 -4z m1752 -31 c2 3 5 -2
5 -10 0 -19 -5 -19 -23 -1 -18 18 -19 32 -1 17 8 -6 16 -9 19 -6z m-1802 -15
c0 -5 -4 -10 -10 -10 -5 0 -10 5 -10 10 0 6 5 10 10 10 6 0 10 -4 10 -10z
m1705 0 c-3 -5 -12 -10 -18 -10 -7 0 -6 4 3 10 19 12 23 12 15 0z m-1680 -20
c-3 -5 -11 -10 -16 -10 -6 0 -7 5 -4 10 3 6 11 10 16 10 6 0 7 -4 4 -10z
m1705 -25 c0 -5 -5 -3 -10 5 -5 8 -10 20 -10 25 0 6 5 3 10 -5 5 -8 10 -19 10
-25z m-30 10 c10 -12 8 -20 -9 -41 -12 -15 -21 -22 -21 -16 0 6 5 14 10 17 8
5 7 12 -2 23 -12 15 -11 16 5 3 11 -9 17 -10 17 -2 0 6 -10 16 -22 21 -16 6
-18 9 -7 9 9 1 22 -6 29 -14z m-1693 -11 c-3 -3 -12 -4 -19 -1 -8 3 -5 6 6 6
11 1 17 -2 13 -5z m30 -11 c-9 -2 -15 -9 -11 -14 3 -5 10 -7 15 -4 5 4 9 2 9
-4 0 -5 -4 -13 -10 -16 -5 -3 -10 -1 -10 6 0 7 -8 5 -20 -6 -11 -10 -20 -13
-20 -8 0 6 7 13 15 17 8 3 15 9 14 13 -3 17 2 23 19 22 16 -1 16 -2 -1 -6z
m1626 1 c9 -9 -16 -44 -31 -44 -7 0 -10 -5 -7 -10 4 -6 16 -8 28 -5 20 5 20 4
-1 -7 -19 -9 -25 -9 -33 3 -6 10 -1 19 18 33 24 18 24 20 7 27 -14 6 -15 8 -3
8 9 1 18 -2 22 -5z m61 -39 c-3 -7 -12 -11 -20 -8 -11 4 -12 9 -3 19 14 17 30
9 23 -11z m-134 -35 c-6 -12 -14 -20 -17 -17 -2 3 1 14 8 26 17 26 24 19 9 -9z
m-1546 -5 c-10 -8 -23 -14 -29 -14 -5 0 -1 6 9 14 11 8 24 15 30 15 5 0 1 -7
-10 -15z m41 -5 c3 -5 1 -10 -4 -10 -6 0 -11 5 -11 10 0 6 2 10 4 10 3 0 8 -4
11 -10z m1516 -13 c-10 -9 -11 -8 -5 6 3 10 9 15 12 12 3 -3 0 -11 -7 -18z
m-1601 -1 c0 -3 -4 -8 -10 -11 -5 -3 -10 -1 -10 4 0 6 5 11 10 11 6 0 10 -2
10 -4z m64 -12 c10 -25 -1 -29 -14 -5 -6 12 -7 21 -1 21 5 0 12 -7 15 -16z
m1516 0 c0 -2 -7 -4 -15 -4 -8 0 -15 4 -15 10 0 5 7 7 15 4 8 -4 15 -8 15 -10z
m60 12 c0 -3 -4 -8 -10 -11 -5 -3 -10 -1 -10 4 0 6 5 11 10 11 6 0 10 -2 10
-4z m-1590 -48 c0 -5 -5 -8 -11 -8 -5 0 -8 4 -4 9 3 5 1 12 -5 16 -5 3 -10 11
-10 18 0 12 29 -23 30 -35z m-44 23 c-4 -5 0 -11 6 -14 7 -3 3 -4 -9 -4 -17 1
-19 4 -11 14 12 15 22 18 14 4z m1537 1 c3 -4 -3 -18 -14 -31 -10 -13 -19 -19
-19 -13 0 5 7 15 15 22 13 11 13 15 3 21 -9 6 -9 9 -1 9 6 0 14 -3 16 -8z
m-1423 -22 c9 -6 20 -5 30 3 13 10 13 10 3 -3 -9 -13 -5 -18 29 -32 34 -15 39
-15 34 -2 -3 9 -2 12 5 9 6 -4 8 -13 5 -21 -6 -16 10 -19 19 -4 4 6 11 8 16 4
6 -4 6 -11 -1 -19 -9 -11 -26 -6 -88 27 -42 22 -79 42 -81 44 -9 8 15 3 29 -6z
m1380 -44 c0 -8 -4 -18 -10 -21 -6 -4 -7 1 -3 11 5 13 3 15 -7 9 -9 -5 -11 -4
-6 3 10 17 26 15 26 -2z m-1197 -36 c-8 -30 -21 -34 -15 -5 2 14 8 25 12 25 5
0 6 -9 3 -20z m1167 10 c0 -11 -39 -34 -47 -27 -2 3 5 8 16 12 12 3 19 11 16
16 -4 5 -1 9 4 9 6 0 11 -4 11 -10z m-1240 -15 c0 -1 -12 -2 -26 -2 -17 0 -22
2 -13 7 10 7 39 3 39 -5z m1253 -12 c-6 -15 -4 -16 9 -5 13 10 17 10 21 -1 3
-9 -2 -13 -14 -12 -24 2 -33 11 -24 24 10 17 15 13 8 -6z m-1128 -3 c-3 -5
-11 -10 -16 -10 -6 0 -7 5 -4 10 3 6 11 10 16 10 6 0 7 -4 4 -10z m-135 -15
c7 -8 8 -15 2 -15 -5 0 -15 7 -22 15 -7 8 -8 15 -2 15 5 0 15 -7 22 -15z m174
-16 c8 -12 12 -28 9 -35 -4 -10 0 -12 13 -8 15 6 16 4 7 -6 -14 -15 -36 -3
-29 16 3 8 -3 23 -14 34 -11 11 -16 20 -11 20 6 0 17 -10 25 -21z m40 0 c8 7
12 5 13 -10 1 -10 -2 -19 -6 -19 -13 0 -31 24 -30 40 1 11 3 10 6 -3 3 -13 8
-15 17 -8z m1031 11 c3 -5 2 -10 -4 -10 -5 0 -13 5 -16 10 -3 6 -2 10 4 10 5
0 13 -4 16 -10z m-1100 -20 c-3 -5 -1 -10 6 -10 7 0 10 -2 7 -5 -3 -3 -13 -2
-22 1 -14 5 -15 9 -4 15 17 11 20 11 13 -1z m1036 -14 c5 3 9 0 9 -6 0 -15
-23 -7 -26 8 -1 7 0 8 3 2 2 -5 9 -8 14 -4z m-932 -22 c-6 -8 -15 -12 -18 -8
-3 4 0 9 7 11 6 3 9 10 6 15 -4 7 -2 8 5 4 9 -6 9 -11 0 -22z m35 11 c-4 -8
-8 -15 -10 -15 -2 0 -4 7 -4 15 0 8 4 15 10 15 5 0 7 -7 4 -15z m40 -15 c-6
-6 -15 -5 -24 1 -13 9 -12 10 3 5 9 -3 17 0 17 6 0 6 3 8 7 5 4 -4 2 -12 -3
-17z m40 -16 c3 -8 2 -13 -3 -9 -5 3 -11 0 -13 -7 -3 -7 -7 -5 -11 6 -4 10 -3
15 3 11 6 -3 10 -1 10 4 0 16 7 13 14 -5z m806 -35 c0 -12 -49 -43 -57 -36 -3
4 6 11 21 16 14 6 26 16 26 22 0 8 -6 7 -17 -2 -16 -12 -17 -12 -6 2 10 12 10
18 0 29 -6 8 -2 6 11 -4 12 -11 22 -23 22 -27z m-726 15 c3 -8 2 -12 -4 -9 -6
3 -10 10 -10 16 0 14 7 11 14 -7z m-34 -19 c5 -14 15 -25 21 -25 8 0 7 6 -2
17 -12 15 -12 16 1 8 20 -13 32 -13 47 -3 12 9 30 -9 19 -19 -3 -4 -6 -1 -6 7
0 10 -3 10 -15 0 -8 -7 -15 -9 -15 -5 0 4 -7 2 -15 -5 -12 -10 -18 -10 -30 0
-8 7 -15 18 -15 25 0 8 -8 11 -20 8 -11 -3 -17 -9 -14 -14 3 -5 0 -9 -5 -9
-29 0 0 31 37 39 1 1 7 -10 12 -24z m715 15 c-3 -5 -12 -10 -18 -10 -7 0 -6 4
3 10 19 12 23 12 15 0z m-595 -34 c0 -2 -7 -9 -15 -16 -13 -11 -14 -10 -9 4 5
14 24 23 24 12z m21 -15 c-12 -8 -11 -13 10 -31 13 -12 19 -19 12 -16 -6 4
-13 1 -15 -6 -2 -6 -12 -12 -21 -14 -9 -1 -15 2 -11 7 3 5 9 7 14 4 15 -9 17
20 2 31 -16 12 -9 34 11 34 8 0 7 -4 -2 -9z m544 -11 c-3 -5 1 -11 7 -13 10
-4 10 -6 1 -6 -7 -1 -17 8 -23 19 -9 16 -8 18 5 14 8 -3 13 -10 10 -14z m-605
0 c0 -5 -4 -10 -10 -10 -5 0 -10 5 -10 10 0 6 5 10 10 10 6 0 10 -4 10 -10z
m104 -2 c-3 -4 -9 -8 -15 -8 -5 0 -9 4 -9 8 0 5 7 9 15 9 8 0 12 -4 9 -9z m46
-21 c0 -9 -2 -9 -8 0 -5 8 -13 9 -22 3 -12 -7 -10 -11 10 -19 23 -9 23 -10 4
-10 -28 -1 -39 25 -16 38 19 11 32 6 32 -12z m17 -38 c-6 -10 -13 -16 -16 -13
-3 2 0 9 6 15 6 6 9 19 6 28 -4 13 -3 13 5 2 7 -10 7 -20 -1 -32z m429 22
c-11 -17 23 -20 39 -4 29 29 26 6 -3 -27 -24 -26 -30 -29 -36 -15 -3 9 -2 13
4 10 6 -3 10 -2 10 3 0 6 -7 12 -15 16 -17 6 -20 26 -4 26 5 0 8 -4 5 -9z
m-379 -7 c-3 -3 -12 -4 -19 -1 -8 3 -5 6 6 6 11 1 17 -2 13 -5z m38 -14 c4 -6
-1 -7 -12 -4 -16 5 -16 4 1 -10 11 -9 15 -16 9 -16 -7 0 -15 5 -18 10 -4 6
-10 8 -15 5 -5 -3 -12 0 -16 6 -4 7 -3 9 4 5 6 -3 13 -2 17 4 8 13 22 13 30 0z
m-61 -16 c3 -8 2 -12 -4 -9 -6 3 -10 1 -10 -6 0 -7 -2 -10 -5 -7 -5 5 4 38 10
38 2 0 6 -7 9 -16z m110 -13 c-4 -3 -9 0 -11 7 -3 6 -10 9 -15 6 -7 -4 -8 -2
-4 5 6 9 11 9 22 0 8 -6 12 -15 8 -18z m208 -13 c-6 -6 -12 -6 -17 3 -5 8 -4
10 3 5 7 -4 12 0 13 11 0 12 2 13 6 5 3 -8 1 -18 -5 -24z m-152 2 c0 -5 -2
-10 -4 -10 -3 0 -8 5 -11 10 -3 6 -1 10 4 10 6 0 11 -4 11 -10z m-19 -40 c8 0
7 6 -2 18 -12 15 -12 16 2 5 9 -7 18 -10 21 -7 3 3 9 -1 14 -8 4 -7 4 -10 -1
-6 -4 4 -14 3 -21 -3 -17 -14 -54 9 -46 29 4 12 7 10 13 -6 5 -12 14 -22 20
-22z m59 19 c0 -8 6 -7 17 2 15 13 15 12 2 -8 -7 -12 -14 -21 -14 -20 0 1 -7
10 -14 20 -9 11 -10 17 -2 17 6 0 11 -5 11 -11z m140 -24 c0 -5 -5 -3 -10 5
-5 8 -10 20 -10 25 0 6 5 3 10 -5 5 -8 10 -19 10 -25z m-104 0 c-3 -8 -1 -15
3 -15 5 0 12 6 14 13 4 9 6 9 6 0 1 -17 -19 -27 -31 -15 -6 6 -7 15 -4 21 10
16 19 13 12 -4z"/>
<path d="M1725 2150 c3 -5 8 -10 11 -10 2 0 4 5 4 10 0 6 -5 10 -11 10 -5 0
-7 -4 -4 -10z"/>
<path d="M2045 2030 c3 -5 8 -10 11 -10 2 0 4 5 4 10 0 6 -5 10 -11 10 -5 0
-7 -4 -4 -10z"/>
<path d="M1502 1603 c-90 -83 -191 -217 -239 -315 l-23 -48 -29 29 c-34 35
-94 74 -138 89 -40 13 -94 -2 -128 -36 -29 -29 -24 -46 18 -62 18 -7 82 -64
144 -127 107 -110 113 -115 147 -110 72 10 95 34 127 132 40 123 98 226 198
346 97 117 98 132 14 137 -45 3 -53 0 -91 -35z"/>
<path d="M760 2009 c0 -5 5 -7 10 -4 6 3 10 8 10 11 0 2 -4 4 -10 4 -5 0 -10
-5 -10 -11z"/>
<path d="M2100 2010 c0 -5 5 -10 11 -10 5 0 7 5 4 10 -3 6 -8 10 -11 10 -2 0
-4 -4 -4 -10z"/>
<path d="M291 1124 c0 -11 3 -14 6 -6 3 7 2 16 -1 19 -3 4 -6 -2 -5 -13z"/>
<path d="M313 1119 c-2 -23 3 -25 10 -4 4 8 3 16 -1 19 -4 3 -9 -4 -9 -15z"/>
<path d="M360 1165 c-8 -9 -8 -15 -2 -15 12 0 26 19 19 26 -2 2 -10 -2 -17
-11z"/>
<path d="M1240 2420 c-13 -8 -12 -10 3 -10 9 0 17 5 17 10 0 12 -1 12 -20 0z"/>
<path d="M1021 2405 c0 -12 5 -27 12 -34 10 -12 9 -13 -7 -7 -19 6 -36 -7 -36
-29 1 -5 5 -2 11 8 6 9 14 15 20 12 15 -10 31 5 21 18 -6 7 -12 21 -15 32 -5
20 -5 20 -6 0z"/>
<path d="M1068 2409 c-20 -11 -24 -29 -7 -29 5 0 7 5 4 10 -12 19 7 10 35 -17
16 -15 26 -31 23 -36 -4 -6 -1 -7 6 -2 9 5 4 16 -19 40 -23 23 -28 34 -18 38
7 3 9 6 3 6 -5 0 -18 -4 -27 -10z"/>
<path d="M1210 2411 c0 -10 19 -25 25 -20 1 2 -3 10 -11 17 -8 7 -14 8 -14 3z"/>
<path d="M1416 2405 c4 -8 10 -15 14 -15 5 0 7 -10 5 -21 -3 -12 -1 -28 4 -36
5 -10 8 -1 8 25 0 27 -6 43 -18 50 -15 10 -17 9 -13 -3z"/>
<path d="M1263 2402 c-9 -6 -7 -11 7 -19 15 -10 19 -9 24 4 4 9 4 18 1 21 -3
3 -5 0 -5 -6 0 -7 -5 -12 -11 -12 -5 0 -7 5 -4 10 7 12 4 12 -12 2z"/>
<path d="M988 2383 c7 -3 16 -2 19 1 4 3 -2 6 -13 5 -11 0 -14 -3 -6 -6z"/>
<path d="M1475 2380 c-19 -8 -19 -9 2 -9 12 -1 25 4 28 9 7 12 -2 12 -30 0z"/>
<path d="M1536 2367 c3 -10 9 -15 12 -12 3 3 0 11 -7 18 -10 9 -11 8 -5 -6z"/>
<path d="M930 2367 c0 -10 79 -85 84 -80 2 3 -7 15 -22 28 -23 20 -24 25 -13
39 8 9 9 16 3 16 -6 0 -12 -6 -15 -12 -3 -10 -7 -10 -20 1 -10 7 -17 11 -17 8z"/>
<path d="M1515 2360 c6 -10 4 -12 -9 -7 -10 4 -15 3 -11 -3 8 -13 35 -13 35
-1 0 6 -5 13 -12 17 -7 5 -8 3 -3 -6z"/>
<path d="M910 2344 c0 -4 8 -13 18 -20 16 -13 16 -13 0 -14 -10 0 -18 -2 -18
-4 0 -2 -3 -11 -6 -20 -3 -9 -1 -16 6 -16 6 0 9 4 5 9 -3 6 4 15 15 21 25 13
25 22 0 38 -11 7 -20 9 -20 6z"/>
<path d="M1390 2341 c0 -9 30 -24 36 -18 2 1 -6 8 -16 15 -11 7 -20 8 -20 3z"/>
<path d="M1590 2340 c0 -5 5 -10 10 -10 6 0 10 5 10 10 0 6 -4 10 -10 10 -5 0
-10 -4 -10 -10z"/>
<path d="M1010 2325 c0 -8 2 -15 4 -15 2 0 6 7 10 15 3 8 1 15 -4 15 -6 0 -10
-7 -10 -15z"/>
<path d="M880 2312 c-8 -9 -21 -29 -28 -46 -10 -23 -15 -27 -24 -18 -7 7 -19
12 -27 12 -10 0 -6 -6 9 -14 21 -11 28 -11 43 2 9 8 17 24 17 34 0 11 4 17 9
14 5 -3 12 1 15 10 9 23 4 25 -14 6z"/>
<path d="M1066 2314 c-4 -10 -1 -14 6 -12 15 5 23 28 10 28 -5 0 -13 -7 -16
-16z"/>
<path d="M1615 2319 c-4 -6 -4 -13 -1 -16 3 -4 6 -1 6 5 0 6 8 13 18 15 15 4
15 5 0 6 -9 0 -20 -4 -23 -10z"/>
<path d="M1674 2313 c19 -23 37 -22 35 0 0 8 -2 8 -6 -1 -4 -10 -10 -9 -27 5
l-21 18 19 -22z"/>
<path d="M1145 2310 c-3 -5 -2 -10 4 -10 5 0 13 5 16 10 3 6 2 10 -4 10 -5 0
-13 -4 -16 -10z"/>
<path d="M1548 2303 c7 -3 16 -2 19 1 4 3 -2 6 -13 5 -11 0 -14 -3 -6 -6z"/>
<path d="M1648 2297 c12 -7 19 -16 16 -20 -4 -4 -2 -7 4 -7 7 0 12 4 12 8 0
13 -23 32 -39 32 -11 -1 -8 -5 7 -13z"/>
<path d="M950 2289 c0 -5 5 -7 10 -4 6 3 10 1 10 -5 0 -6 5 -8 11 -4 8 4 7 9
-2 15 -19 12 -29 11 -29 -2z"/>
<path d="M1730 2289 c0 -5 -6 -7 -12 -3 -8 5 -7 0 2 -12 26 -33 40 -46 41 -37
6 35 5 54 -2 58 -4 3 -6 -7 -3 -21 4 -23 3 -25 -10 -15 -8 7 -12 19 -9 27 3 8
2 14 -1 14 -3 0 -6 -5 -6 -11z"/>
<path d="M1620 2276 c0 -8 4 -18 10 -21 6 -4 7 1 3 11 -5 13 -3 15 7 9 9 -5
11 -4 6 3 -10 17 -26 15 -26 -2z"/>
<path d="M1784 2272 c4 -6 -1 -24 -10 -39 l-16 -28 20 25 c18 21 24 23 40 13
13 -7 23 -8 33 -1 12 8 12 9 -1 5 -8 -2 -28 5 -44 16 -16 12 -26 16 -22 9z"/>
<path d="M1715 2240 c3 -6 1 -10 -6 -10 -7 0 -10 -3 -6 -6 3 -3 13 -2 22 4 16
8 16 9 1 15 -10 4 -15 3 -11 -3z"/>
<path d="M1860 2230 c-7 -10 -17 -17 -22 -14 -4 3 -8 1 -8 -4 0 -16 30 -23 48
-12 14 9 12 10 -8 4 -25 -7 -25 -7 -6 15 11 11 17 23 15 26 -3 2 -11 -4 -19
-15z"/>
<path d="M1798 2223 c7 -3 16 -2 19 1 4 3 -2 6 -13 5 -11 0 -14 -3 -6 -6z"/>
<path d="M1970 2209 c0 -5 5 -7 10 -4 6 3 10 8 10 11 0 2 -4 4 -10 4 -5 0 -10
-5 -10 -11z"/>
<path d="M1943 2195 c-7 -7 -18 -15 -25 -18 -7 -2 -10 -7 -7 -11 3 -4 17 2 30
13 13 11 22 21 19 24 -3 3 -10 -1 -17 -8z"/>
<path d="M743 2160 c19 -23 23 -25 34 -11 9 12 7 18 -5 27 -10 6 -25 11 -34
11 -14 0 -14 -4 5 -27z m22 9 c11 -17 -1 -21 -15 -4 -8 9 -8 15 -2 15 6 0 14
-5 17 -11z"/>
<path d="M1970 2186 c0 -4 7 -14 15 -22 13 -14 17 -14 30 0 8 8 15 18 15 22 0
3 -7 1 -15 -6 -12 -10 -18 -10 -30 0 -8 7 -15 9 -15 6z"/>
<path d="M2036 2167 c-14 -14 -15 -19 -4 -15 8 4 28 -4 44 -18 25 -20 58 -35
41 -17 -4 3 1 12 11 20 15 13 15 13 -5 3 -28 -13 -75 13 -66 36 7 19 2 17 -21
-9z"/>
<path d="M710 2166 c0 -4 12 -19 26 -34 20 -21 24 -22 16 -6 -11 22 -42 51
-42 40z"/>
<path d="M1950 2160 c0 -6 7 -10 15 -10 8 0 15 2 15 4 0 2 -7 6 -15 10 -8 3
-15 1 -15 -4z"/>
<path d="M2090 2160 c0 -5 5 -10 11 -10 5 0 7 5 4 10 -3 6 -8 10 -11 10 -2 0
-4 -4 -4 -10z"/>
<path d="M795 2150 c-3 -5 -1 -10 4 -10 6 0 11 5 11 10 0 6 -2 10 -4 10 -3 0
-8 -4 -11 -10z"/>
<path d="M675 2140 c-3 -6 1 -7 9 -4 18 7 21 14 7 14 -6 0 -13 -4 -16 -10z"/>
<path d="M2139 2123 c-8 -9 -9 -14 -2 -10 6 4 13 2 15 -5 3 -8 7 -6 11 5 9 23
-8 30 -24 10z"/>
<path d="M2170 2100 c-13 -11 -19 -20 -13 -20 5 0 18 9 28 20 10 11 16 20 13
20 -3 0 -15 -9 -28 -20z"/>
<path d="M2202 2097 c-8 -9 -8 -17 0 -27 8 -13 9 -12 5 1 -3 9 0 22 6 28 6 6
8 11 5 11 -3 0 -10 -6 -16 -13z"/>
<path d="M2118 2093 c7 -3 16 -2 19 1 4 3 -2 6 -13 5 -11 0 -14 -3 -6 -6z"/>
<path d="M2236 2074 c16 -13 16 -15 2 -10 -10 3 -18 0 -18 -5 0 -6 9 -9 19 -6
13 3 21 -1 23 -12 3 -12 5 -10 10 7 3 12 3 20 -2 17 -4 -3 -13 2 -20 10 -7 8
-17 15 -23 15 -6 0 -2 -7 9 -16z"/>
<path d="M617 2066 c-8 -8 -16 -13 -19 -11 -2 2 -4 -5 -5 -15 -1 -11 3 -20 9
-20 6 0 8 3 5 7 -9 9 23 44 34 37 13 -8 11 -24 -2 -21 -6 1 -13 -4 -14 -11 -2
-7 -1 -8 2 -2 3 7 12 5 24 -6 11 -10 19 -12 19 -6 0 7 -4 12 -10 12 -5 0 -7 6
-4 13 3 8 -2 19 -9 26 -12 9 -18 9 -30 -3z"/>
<path d="M2290 2052 c0 -5 9 -18 19 -29 11 -12 18 -23 15 -25 -2 -3 3 -5 11
-5 12 0 12 3 2 16 -24 30 -47 51 -47 43z"/>
<path d="M2235 2018 c3 -31 2 -30 27 -17 18 10 24 8 40 -12 l20 -24 -18 32
c-17 30 -18 31 -42 15 -24 -16 -24 -15 -18 6 4 12 3 22 -2 22 -5 0 -8 -10 -7
-22z"/>
<path d="M550 2011 c0 -6 5 -13 12 -17 7 -5 8 -3 3 6 -6 10 -4 12 9 7 10 -4
15 -3 11 3 -8 13 -35 13 -35 1z"/>
<path d="M622 1995 c-15 -18 -1 -20 16 -3 9 9 12 9 12 -1 0 -7 5 -9 11 -5 8 4
7 9 -2 15 -18 11 -22 11 -37 -6z"/>
<path d="M535 1979 c-4 -6 -4 -13 -1 -16 3 -3 0 -15 -6 -27 -10 -18 -9 -19 4
-8 9 7 16 24 16 37 0 27 -3 31 -13 14z"/>
<path d="M2268 1983 c7 -3 16 -2 19 1 4 3 -2 6 -13 5 -11 0 -14 -3 -6 -6z"/>
<path d="M561 1964 c0 -11 3 -14 6 -6 3 7 2 16 -1 19 -3 4 -6 -2 -5 -13z"/>
<path d="M2326 1964 c-5 -13 -9 -14 -21 -4 -9 7 -18 10 -22 6 -3 -3 -1 -6 5
-6 6 0 18 -12 27 -27 15 -27 15 -27 9 -3 -6 22 -5 23 10 11 10 -9 16 -10 16
-2 0 6 -4 11 -10 11 -5 0 -7 7 -4 15 4 8 4 15 1 15 -3 0 -8 -7 -11 -16z"/>
<path d="M470 1936 c0 -2 9 -6 20 -9 11 -3 18 -1 14 4 -5 9 -34 13 -34 5z"/>
<path d="M450 1915 c0 -7 30 -13 34 -7 3 4 -4 9 -15 9 -10 1 -19 0 -19 -2z"/>
<path d="M2343 1908 c-19 -24 -24 -38 -15 -38 5 0 14 11 20 25 13 27 10 32 -5
13z"/>
<path d="M489 1893 c-13 -15 -12 -15 9 -4 23 12 28 21 13 21 -5 0 -15 -7 -22
-17z"/>
<path d="M533 1906 c4 -5 -5 -18 -20 -28 -28 -18 -21 -26 7 -8 8 5 17 5 20 0
3 -5 11 -5 18 -1 9 5 6 13 -10 27 -13 10 -20 15 -15 10z"/>
<path d="M430 1879 c-6 -11 -16 -17 -23 -13 -8 5 -8 2 1 -7 9 -9 15 -10 20 -3
4 6 15 15 26 21 16 9 16 11 2 16 -10 4 -20 -1 -26 -14z"/>
<path d="M2286 1875 c4 -8 10 -15 15 -15 4 0 6 7 3 15 -4 8 -10 15 -15 15 -4
0 -6 -7 -3 -15z"/>
<path d="M2343 1855 c-3 -9 -3 -19 1 -22 3 -4 6 1 6 11 0 10 5 14 12 10 7 -4
8 -3 4 4 -10 16 -15 15 -23 -3z"/>
<path d="M437 1846 c-3 -7 0 -19 6 -25 6 -6 7 -14 3 -18 -4 -4 -12 -1 -17 7
-9 13 -10 13 -6 0 2 -8 10 -15 18 -15 8 0 20 -7 27 -15 10 -13 12 -13 10 0 -2
8 -11 23 -20 33 -9 11 -14 25 -11 33 3 8 3 14 0 14 -3 0 -7 -6 -10 -14z"/>
<path d="M2310 1850 c-10 -6 -11 -10 -2 -10 6 0 12 -4 12 -10 0 -5 -8 -7 -17
-3 -14 5 -15 3 -6 -7 15 -16 32 -5 30 20 -1 11 -1 20 -2 20 0 0 -7 -5 -15 -10z"/>
<path d="M381 1840 c-9 -5 -4 -7 13 -7 29 0 32 2 13 10 -8 3 -20 2 -26 -3z"/>
<path d="M460 1838 c0 -11 12 -10 30 2 12 7 10 9 -8 7 -12 0 -22 -5 -22 -9z"/>
<path d="M2335 1810 c-16 -11 -25 -20 -20 -20 10 0 64 39 55 40 -3 0 -18 -9
-35 -20z"/>
<path d="M360 1811 c0 -7 -4 -9 -10 -6 -5 3 -10 1 -10 -4 0 -6 4 -11 9 -11 13
0 25 20 17 27 -3 4 -6 1 -6 -6z"/>
<path d="M390 1809 c0 -16 -26 -39 -35 -31 -5 4 -5 1 -1 -6 6 -10 11 -10 22
-1 22 18 37 49 24 49 -5 0 -10 -5 -10 -11z"/>
<path d="M2340 1785 c-7 -8 -16 -12 -21 -9 -5 3 -9 0 -9 -5 0 -15 16 -14 33 4
8 8 18 11 22 7 5 -4 5 -1 1 6 -9 15 -11 15 -26 -3z"/>
<path d="M324 1777 c3 -10 -1 -25 -9 -34 -16 -16 -12 -33 8 -33 7 0 6 4 -3 10
-8 5 -10 10 -4 10 18 0 25 30 13 48 -9 15 -10 15 -5 -1z"/>
<path d="M2357 1764 c-3 -3 -3 -13 1 -22 5 -15 4 -15 -11 -3 -10 7 -17 9 -17
3 0 -6 6 -12 13 -15 8 -3 7 -10 -7 -26 -20 -22 -37 -21 -18 1 8 10 6 20 -8 38
-11 14 -20 20 -20 14 0 -6 7 -17 15 -24 12 -10 13 -16 4 -27 -9 -10 -9 -17 -1
-25 9 -9 16 -6 30 10 11 12 21 20 23 18 2 -3 5 11 5 30 0 37 0 37 -9 28z"/>
<path d="M358 1743 c7 -3 16 -2 19 1 4 3 -2 6 -13 5 -11 0 -14 -3 -6 -6z"/>
<path d="M342 1723 c0 -5 -2 -16 -7 -26 -7 -17 -9 -17 -30 3 -18 17 -25 19
-31 8 -4 -7 -4 -10 1 -6 4 4 17 -2 27 -15 l20 -22 19 24 c21 26 24 41 9 41 -5
0 -9 -3 -8 -7z"/>
<path d="M373 1715 c0 -8 4 -12 9 -9 5 3 6 10 3 15 -9 13 -12 11 -12 -6z"/>
<path d="M248 1669 l-23 -21 24 15 c13 9 30 13 37 10 8 -3 14 -3 14 0 0 16
-32 13 -52 -4z"/>
<path d="M2350 1680 c-12 -7 -10 -9 7 -7 12 0 19 5 17 9 -6 10 -6 10 -24 -2z"/>
<path d="M270 1649 c0 -5 5 -7 10 -4 6 3 10 8 10 11 0 2 -4 4 -10 4 -5 0 -10
-5 -10 -11z"/>
<path d="M304 1641 c3 -14 0 -31 -6 -38 -15 -18 0 -16 19 3 10 10 12 18 6 22
-5 4 -13 14 -17 22 -3 8 -4 4 -2 -9z"/>
<path d="M2362 1640 c0 -14 2 -19 5 -12 2 6 2 18 0 25 -3 6 -5 1 -5 -13z"/>
<path d="M263 1615 c-3 -9 -3 -19 1 -22 3 -4 6 1 6 11 0 9 5 14 10 11 6 -3 10
-1 10 4 0 17 -20 13 -27 -4z"/>
<path d="M2348 1559 c-21 -23 -24 -36 -4 -20 11 9 14 6 14 -14 0 -25 -1 -25
-25 -10 -20 14 -27 14 -40 3 -9 -7 -18 -12 -20 -10 -1 1 -6 2 -10 2 -5 0 -2
-4 6 -9 9 -6 19 -4 28 5 12 12 19 10 47 -11 18 -14 37 -25 42 -25 5 0 2 5 -7
10 -11 6 -15 22 -13 54 1 26 2 46 1 45 -1 0 -10 -9 -19 -20z"/>
<path d="M276 1525 c-3 -8 -1 -15 4 -15 6 0 10 7 10 15 0 8 -2 15 -4 15 -2 0
-6 -7 -10 -15z"/>
<path d="M224 1481 c0 -11 5 -17 13 -14 10 4 11 9 2 19 -15 18 -15 18 -15 -5z"/>
<path d="M2336 1435 c-3 -8 -1 -15 4 -15 6 0 10 7 10 15 0 8 -2 15 -4 15 -2 0
-6 -7 -10 -15z"/>
<path d="M233 1404 c15 -16 19 -17 27 -4 5 8 6 17 3 20 -3 3 -8 -1 -10 -8 -4
-10 -8 -10 -21 0 -13 9 -13 8 1 -8z"/>
<path d="M284 1408 c3 -10 2 -18 -3 -18 -5 0 -16 -11 -25 -25 -12 -19 -13 -23
-2 -19 8 3 21 -5 30 -17 8 -13 19 -20 23 -16 4 4 -3 14 -15 23 -20 14 -33 52
-13 40 13 -9 21 19 9 35 -8 11 -9 10 -4 -3z"/>
<path d="M2329 1392 c14 -26 41 -48 41 -33 0 6 -4 11 -9 11 -5 0 -13 9 -16 20
-3 11 -11 20 -16 20 -6 0 -6 -7 0 -18z"/>
<path d="M2356 1395 c4 -8 8 -15 10 -15 2 0 4 7 4 15 0 8 -4 15 -10 15 -5 0
-7 -7 -4 -15z"/>
<path d="M2383 1385 c0 -8 4 -12 9 -9 5 3 6 10 3 15 -9 13 -12 11 -12 -6z"/>
<path d="M221 1383 c-1 -17 16 -25 25 -12 4 7 3 9 -4 5 -5 -3 -13 0 -15 6 -4
9 -6 10 -6 1z"/>
<path d="M2270 1355 c7 -8 17 -12 22 -9 6 4 5 10 -3 15 -22 14 -33 10 -19 -6z"/>
<path d="M2372 1338 c-7 -7 -12 -19 -11 -27 0 -14 1 -14 6 -1 4 8 13 20 22 27
9 7 11 13 6 13 -6 0 -16 -5 -23 -12z"/>
<path d="M250 1324 c0 -3 10 -14 22 -23 14 -12 18 -22 13 -31 -7 -11 -10 -9
-17 6 -8 19 -8 19 -5 0 3 -28 20 -29 40 -1 14 19 14 23 3 19 -9 -3 -20 3 -28
15 -12 20 -28 28 -28 15z"/>
<path d="M234 1275 c2 -25 44 -91 53 -81 3 3 -1 12 -8 20 -32 35 -36 43 -32
64 1 12 -1 22 -6 22 -4 0 -7 -11 -7 -25z"/>
<path d="M2360 1240 c-12 -17 -19 -36 -17 -43 4 -7 6 -6 6 4 1 9 13 28 27 43
15 14 22 26 16 26 -6 0 -20 -14 -32 -30z"/>
<path d="M2371 1204 c0 -11 3 -14 6 -6 3 7 2 16 -1 19 -3 4 -6 -2 -5 -13z"/>
<path d="M236 1193 c-6 -14 -5 -15 5 -6 7 7 10 15 7 18 -3 3 -9 -2 -12 -12z"/>
<path d="M2316 1183 c-6 -14 -5 -15 5 -6 7 7 10 15 7 18 -3 3 -9 -2 -12 -12z"/>
<path d="M2390 1189 c0 -5 5 -7 10 -4 6 3 10 8 10 11 0 2 -4 4 -10 4 -5 0 -10
-5 -10 -11z"/>
<path d="M250 1175 c-7 -8 -9 -15 -4 -15 5 0 3 -4 -5 -9 -9 -6 -10 -11 -2 -15
10 -6 13 0 10 20 0 4 5 10 12 15 8 4 11 11 8 14 -4 3 -12 -1 -19 -10z"/>
<path d="M2380 1118 c0 -4 4 -8 9 -8 6 0 12 4 15 8 3 5 -1 9 -9 9 -8 0 -15 -4
-15 -9z"/>
<path d="M240 1095 c0 -2 11 -16 25 -31 14 -15 25 -22 25 -15 0 6 -7 14 -15
17 -8 4 -13 10 -10 14 3 4 -2 10 -10 14 -8 3 -15 3 -15 1z"/>
<path d="M2300 1090 c0 -5 5 -10 11 -10 5 0 7 5 4 10 -3 6 -8 10 -11 10 -2 0
-4 -4 -4 -10z"/>
<path d="M236 1043 c-6 -14 -5 -15 5 -6 7 7 10 15 7 18 -3 3 -9 -2 -12 -12z"/>
<path d="M337 1040 c-14 -21 -16 -21 -26 -3 -10 16 -11 16 -8 -6 1 -13 -4 -26
-11 -28 -8 -3 -10 2 -6 14 5 16 5 17 -6 1 -6 -9 -17 -15 -24 -12 -8 3 -16 -4
-19 -18 -5 -20 -4 -21 6 -7 7 9 21 15 31 13 10 -1 29 4 42 13 13 8 28 12 33 9
14 -9 23 11 13 30 -8 15 -11 14 -25 -6z"/>
<path d="M256 1035 c-3 -8 -1 -15 4 -15 6 0 10 7 10 15 0 8 -2 15 -4 15 -2 0
-6 -7 -10 -15z"/>
<path d="M2334 1038 c-3 -5 -3 -12 0 -15 3 -4 6 -1 6 5 0 7 5 12 11 12 5 0 7
-5 3 -12 -4 -6 -3 -8 4 -4 5 3 12 3 15 -1 2 -5 2 -2 0 6 -2 8 2 11 12 7 9 -3
14 -2 11 3 -7 11 -55 11 -62 -1z"/>
<path d="M2269 1019 c-13 -8 -12 -10 11 -13 6 0 15 -8 20 -16 5 -8 10 -10 10
-5 -1 22 -26 44 -41 34z"/>
<path d="M2310 1025 c0 -5 5 -17 10 -25 5 -8 10 -10 10 -5 0 6 -5 17 -10 25
-5 8 -10 11 -10 5z"/>
<path d="M2340 1000 c0 -5 5 -10 11 -10 5 0 7 -5 3 -12 -4 -7 -3 -8 4 -4 6 4
9 13 5 21 -6 17 -23 20 -23 5z"/>
<path d="M2279 988 c-8 -27 -5 -36 9 -30 10 4 12 7 4 10 -7 2 -10 8 -6 13 3 5
3 9 0 9 -3 0 -6 -1 -7 -2z"/>
<path d="M2332 960 c0 -14 2 -19 5 -12 2 6 2 18 0 25 -3 6 -5 1 -5 -13z"/>
<path d="M2295 943 c-11 -14 -18 -33 -17 -42 3 -13 1 -13 -12 -2 -11 9 -16 10
-16 2 0 -6 5 -11 12 -11 13 0 2 -14 -13 -16 -5 -1 -13 -2 -19 -3 -5 0 -10 -6
-10 -12 0 -8 4 -8 14 0 10 8 16 9 21 1 3 -6 11 -8 16 -4 5 3 7 9 4 14 -3 5 -1
11 5 15 5 3 10 1 10 -6 0 -7 3 -10 6 -6 3 3 1 14 -4 24 -8 14 -6 23 10 40 12
13 19 25 17 28 -3 2 -14 -8 -24 -22z"/>
<path d="M240 932 c6 -12 15 -20 20 -17 4 3 11 0 13 -5 4 -7 5 -6 4 1 -2 6 -6
9 -9 7 -4 -2 -14 6 -23 17 -16 19 -16 19 -5 -3z"/>
<path d="M2305 921 c-3 -5 0 -13 6 -17 7 -4 9 -3 5 4 -3 5 0 13 6 15 9 4 10 6
1 6 -6 1 -14 -3 -18 -8z"/>
<path d="M233 895 c0 -7 6 -11 14 -8 7 3 13 6 13 8 0 2 -6 5 -13 8 -8 3 -14
-1 -14 -8z"/>
<path d="M245 860 c3 -5 8 -10 11 -10 2 0 4 5 4 10 0 6 -5 10 -11 10 -5 0 -7
-4 -4 -10z"/>
<path d="M290 860 c0 -5 5 -10 11 -10 5 0 7 5 4 10 -3 6 -8 10 -11 10 -2 0 -4
-4 -4 -10z"/>
<path d="M270 851 c0 -10 19 -25 25 -20 1 2 -3 10 -11 17 -8 7 -14 8 -14 3z"/>
<path d="M250 825 l25 -27 -25 6 c-18 5 -21 4 -10 -2 21 -14 63 -10 66 6 1 7
0 8 -3 2 -2 -5 -9 -10 -14 -10 -6 0 -7 5 -3 12 4 7 3 8 -4 4 -7 -4 -12 -3 -12
1 0 5 -10 14 -22 22 -22 13 -22 12 2 -14z"/>
<path d="M2230 840 c-13 -8 -12 -10 3 -10 9 0 17 5 17 10 0 12 -1 12 -20 0z"/>
<path d="M2190 820 c0 -6 4 -9 9 -6 5 4 12 1 14 -4 3 -6 4 -5 3 2 -3 15 -26
23 -26 8z"/>
<path d="M2165 800 c3 -5 8 -10 11 -10 2 0 4 5 4 10 0 6 -5 10 -11 10 -5 0 -7
-4 -4 -10z"/>
<path d="M240 773 c8 -12 18 -19 22 -17 4 3 8 0 8 -5 0 -6 5 -11 11 -11 8 0 8
4 0 14 -7 8 -8 16 -4 18 4 3 2 3 -6 1 -7 -2 -20 2 -29 9 -13 12 -14 11 -2 -9z"/>
<path d="M2158 777 c12 -7 20 -16 16 -20 -4 -4 -13 -2 -21 4 -7 6 -13 8 -13 3
0 -5 -5 -2 -11 6 -7 10 -9 11 -7 2 2 -8 7 -13 12 -12 5 1 12 -4 17 -11 6 -10
11 -10 24 1 16 13 16 15 -1 27 -10 7 -23 13 -28 13 -6 -1 -1 -6 12 -13z"/>
<path d="M2111 747 c4 -5 -4 -20 -17 -34 -13 -14 -22 -29 -19 -33 2 -4 -5 -17
-16 -28 -11 -12 -15 -22 -10 -22 6 0 15 9 21 20 7 12 16 18 23 13 9 -5 9 -3 0
8 -10 13 -9 20 7 37 13 13 27 19 38 15 19 -7 17 -4 -13 17 -11 8 -17 11 -14 7z"/>
<path d="M2118 703 c7 -3 16 -2 19 1 4 3 -2 6 -13 5 -11 0 -14 -3 -6 -6z"/>
<path d="M2015 660 c3 -5 14 -10 23 -10 15 0 15 2 2 10 -20 13 -33 13 -25 0z"/>
<path d="M261 644 c0 -11 3 -14 6 -6 3 7 2 16 -1 19 -3 4 -6 -2 -5 -13z"/>
<path d="M235 630 c3 -5 8 -10 11 -10 2 0 4 5 4 10 0 6 -5 10 -11 10 -5 0 -7
-4 -4 -10z"/>
<path d="M2000 625 c-14 -8 -20 -14 -14 -15 5 0 19 7 30 15 24 18 16 19 -16 0z"/>
<path d="M350 609 c0 -5 -5 -7 -12 -3 -6 4 -4 -3 5 -15 8 -13 13 -29 11 -36
-3 -7 -1 -16 5 -20 7 -4 9 1 5 12 -4 13 0 11 16 -7 19 -22 20 -22 11 -3 -6 12
-16 25 -21 28 -6 3 -10 12 -10 18 0 7 11 0 25 -15 20 -24 24 -25 22 -8 -1 10
-3 17 -5 15 -7 -6 -41 28 -36 37 3 4 0 8 -5 8 -6 0 -11 -5 -11 -11z"/>
<path d="M2030 605 c0 -8 2 -15 4 -15 2 0 6 7 10 15 3 8 1 15 -4 15 -6 0 -10
-7 -10 -15z"/>
<path d="M400 600 c0 -5 5 -10 11 -10 5 0 7 5 4 10 -3 6 -8 10 -11 10 -2 0 -4
-4 -4 -10z"/>
<path d="M1993 584 c-25 -27 -29 -44 -12 -44 5 0 8 4 5 9 -6 9 18 34 25 26 3
-2 5 5 6 15 1 11 1 20 0 19 -1 -1 -12 -12 -24 -25z"/>
<path d="M317 584 c-11 -11 -8 -26 3 -19 6 3 10 1 10 -6 0 -7 3 -10 6 -6 3 3
2 13 -3 22 -5 8 -12 12 -16 9z"/>
<path d="M421 564 c0 -11 3 -14 6 -6 3 7 2 16 -1 19 -3 4 -6 -2 -5 -13z"/>
<path d="M1903 548 c0 -13 1 -17 4 -10 3 6 10 9 16 5 7 -4 6 1 -2 10 -17 21
-17 21 -18 -5z"/>
<path d="M500 531 c0 -9 -8 -11 -24 -7 -31 8 -41 -7 -20 -28 14 -14 34 -14 34
0 0 3 -4 3 -9 0 -5 -3 -15 1 -22 10 -11 13 -9 14 13 9 25 -6 47 9 34 22 -3 4
-6 1 -6 -6z"/>
<path d="M1902 505 c-12 -15 -23 -21 -27 -15 -3 5 -12 10 -18 10 -7 0 -4 -5 6
-11 9 -5 17 -15 17 -20 0 -6 -4 -7 -10 -4 -5 3 -10 1 -10 -4 0 -22 19 -10 40
23 11 19 26 37 33 40 9 3 9 5 0 5 -6 1 -21 -10 -31 -24z"/>
<path d="M1925 500 c-3 -5 -1 -10 4 -10 6 0 11 5 11 10 0 6 -2 10 -4 10 -3 0
-8 -4 -11 -10z"/>
<path d="M1896 451 l-20 -26 25 20 c13 11 25 21 27 21 2 1 0 4 -5 7 -4 3 -17
-7 -27 -22z"/>
<path d="M626 455 c-6 -17 2 -45 14 -45 5 0 11 9 15 20 11 33 -16 57 -29 25z
m20 -22 c-10 -10 -19 5 -10 18 6 11 8 11 12 0 2 -7 1 -15 -2 -18z"/>
<path d="M557 453 c-3 -5 5 -15 19 -22 33 -15 38 -14 22 3 -7 8 -16 12 -20 10
-3 -2 -8 1 -10 8 -3 8 -6 9 -11 1z"/>
<path d="M1834 439 c-9 -16 2 -22 21 -11 15 8 16 10 1 15 -8 3 -18 2 -22 -4z"/>
<path d="M790 430 c0 -5 5 -10 11 -10 5 0 7 5 4 10 -3 6 -8 10 -11 10 -2 0 -4
-4 -4 -10z"/>
<path d="M661 407 c-11 -18 -11 -20 0 -9 19 18 34 15 18 -5 -13 -15 -12 -15 8
-2 12 7 21 14 20 14 -1 0 -9 6 -17 12 -13 10 -18 8 -29 -10z"/>
<path d="M754 415 c-4 -8 -10 -12 -16 -9 -5 3 -4 -3 4 -15 7 -12 16 -21 20
-21 3 0 9 -8 11 -17 4 -16 5 -16 6 -1 0 9 -6 23 -14 32 -13 13 -13 16 1 30 8
9 10 16 4 16 -6 0 -13 -7 -16 -15z"/>
<path d="M1805 421 c-3 -6 -11 -9 -16 -6 -15 10 -10 -2 8 -16 9 -8 14 -9 10
-2 -4 6 -1 13 5 16 7 2 10 7 7 11 -4 4 -10 2 -14 -3z"/>
<path d="M775 400 c3 -5 11 -10 16 -10 6 0 7 5 4 10 -3 6 -11 10 -16 10 -6 0
-7 -4 -4 -10z"/>
<path d="M845 400 c-3 -5 -1 -10 4 -10 6 0 11 5 11 10 0 6 -2 10 -4 10 -3 0
-8 -4 -11 -10z"/>
<path d="M1822 390 c-7 -12 -8 -20 -2 -20 5 0 10 5 10 10 0 6 5 9 11 8 6 -2
14 4 16 12 4 12 3 12 -5 1 -6 -9 -11 -10 -13 -2 -2 6 -10 2 -17 -9z"/>
<path d="M694 378 c-5 -7 -2 -9 8 -5 9 3 21 0 27 -6 9 -9 11 -8 6 6 -8 19 -30
23 -41 5z"/>
<path d="M798 372 c10 -3 10 -7 1 -18 -7 -9 -8 -14 -1 -14 6 0 13 6 16 13 5
10 7 10 12 0 3 -7 10 -13 16 -13 7 0 6 5 -1 14 -9 11 -9 15 1 18 7 3 -3 5 -22
5 -19 0 -29 -2 -22 -5z"/>
<path d="M1760 361 c0 -11 29 -35 35 -29 2 2 -4 12 -15 21 -11 9 -20 13 -20 8z"/>
<path d="M1749 337 c22 -27 48 -39 57 -25 4 6 3 8 -3 5 -6 -4 -24 3 -39 15
-20 16 -25 17 -15 5z"/>
<path d="M845 320 c3 -5 8 -10 11 -10 2 0 4 5 4 10 0 6 -5 10 -11 10 -5 0 -7
-4 -4 -10z"/>
<path d="M924 315 c15 -8 33 -15 40 -15 6 0 -2 7 -18 15 -15 8 -33 15 -40 15
-6 0 2 -7 18 -15z"/>
<path d="M1740 290 c-8 -5 -12 -10 -7 -10 4 0 -1 -8 -10 -18 -10 -11 -22 -17
-26 -14 -5 2 -3 -5 5 -17 7 -12 14 -17 16 -11 2 6 7 8 11 6 4 -3 8 1 8 9 0 8
-4 12 -9 9 -15 -10 -8 6 12 26 12 12 26 18 32 14 7 -4 8 -3 4 4 -9 14 -16 15
-36 2z"/>
<path d="M946 278 c3 -4 11 -5 19 -1 21 7 19 12 -4 10 -11 0 -18 -5 -15 -9z"/>
<path d="M1097 265 c-8 -8 -18 -11 -22 -7 -5 4 -5 1 -1 -5 4 -7 3 -13 -3 -13
-5 0 -12 6 -14 13 -4 9 -6 9 -6 0 -1 -14 38 -38 47 -29 3 3 -1 6 -8 6 -9 0 -8
6 5 20 10 11 22 17 26 14 5 -3 9 0 9 5 0 15 -16 14 -33 -4z"/>
<path d="M1150 260 c-25 -19 -25 -19 -5 -33 17 -13 21 -13 32 2 7 9 13 20 13
25 0 6 -6 1 -14 -10 -12 -15 -17 -17 -27 -6 -11 10 -10 12 3 12 9 0 18 7 22
15 7 19 6 19 -24 -5z"/>
<path d="M1210 250 c6 -11 15 -20 20 -20 6 0 2 9 -7 20 -10 11 -19 20 -21 20
-1 0 2 -9 8 -20z"/>
<path d="M1755 259 c-4 -6 -5 -12 -2 -15 2 -3 7 2 10 11 7 17 1 20 -8 4z"/>
<path d="M1189 223 c0 -4 -2 -16 -4 -26 -2 -11 0 -16 3 -12 4 4 8 11 8 16 3
22 5 23 15 9 9 -12 10 -12 7 -1 -5 16 -28 28 -29 14z"/>
<path d="M1115 210 c3 -5 8 -10 11 -10 2 0 4 5 4 10 0 6 -5 10 -11 10 -5 0 -7
-4 -4 -10z"/>
<path d="M1242 209 c6 -4 8 -15 4 -24 -5 -14 -9 -15 -20 -6 -11 9 -16 9 -22
-1 -4 -7 -4 -10 1 -6 4 4 14 3 21 -3 9 -8 17 -4 29 15 9 14 24 27 33 29 9 2 0
4 -20 3 -21 0 -33 -3 -26 -7z"/>
<path d="M1290 194 c-14 -8 -18 -14 -10 -14 8 1 24 7 34 15 24 19 10 18 -24
-1z"/>
<path d="M1319 188 c-7 -15 -6 -59 2 -63 5 -4 6 2 2 12 -6 16 -5 16 10 4 9 -7
17 -9 17 -3 0 5 -7 12 -15 16 -8 3 -15 10 -15 16 0 7 6 8 19 0 25 -13 31 -13
31 1 0 5 -4 8 -9 4 -5 -3 -12 -1 -16 5 -5 9 -23 14 -26 8z"/>
<path d="M1638 173 c7 -3 16 -2 19 1 4 3 -2 6 -13 5 -11 0 -14 -3 -6 -6z"/>
<path d="M1260 162 c0 -4 9 -8 20 -9 11 -1 20 2 20 5 0 4 -9 8 -20 9 -11 1
-20 -2 -20 -5z"/>
<path d="M1480 162 c0 -12 25 -33 36 -31 19 3 35 -1 30 -9 -2 -4 4 -9 15 -9
18 -2 17 0 -5 18 -14 11 -30 18 -35 15 -5 -4 -17 1 -25 10 -9 8 -16 11 -16 6z"/>
<path d="M1583 154 c-19 -19 -16 -29 4 -13 15 12 16 12 9 -6 -4 -11 -4 -16 0
-12 4 4 17 -1 28 -10 21 -18 21 -18 5 2 -9 11 -20 27 -25 36 -8 14 -11 15 -21
3z"/>
<path d="M1461 133 c12 -15 12 -16 -3 -10 -10 3 -20 2 -24 -4 -4 -6 -11 -6
-20 2 -10 8 -18 9 -25 2 -7 -7 -5 -14 6 -23 13 -11 18 -10 33 3 16 15 20 15
40 1 12 -8 22 -20 22 -26 0 -7 -6 -6 -15 2 -8 7 -15 9 -15 4 0 -5 -4 -3 -9 5
-6 9 -11 10 -15 2 -4 -6 -2 -12 3 -12 26 -3 30 -4 37 -12 4 -4 16 0 26 10 20
18 25 5 6 -17 -11 -12 -10 -12 3 -2 9 6 19 8 24 4 4 -4 3 2 -2 13 -6 11 -8 27
-6 35 3 9 -1 6 -10 -5 -15 -19 -16 -20 -34 -1 -17 18 -17 18 7 12 25 -6 25 -6
3 5 -13 7 -23 16 -23 21 0 4 -5 8 -11 8 -8 0 -7 -6 2 -17z m-46 -23 c3 -5 2
-10 -4 -10 -5 0 -13 5 -16 10 -3 6 -2 10 4 10 5 0 13 -4 16 -10z"/>
<path d="M1586 94 c-4 -9 -4 -19 -1 -22 3 -3 5 0 5 7 0 7 7 11 14 8 10 -4 13
-1 9 9 -7 19 -19 18 -27 -2z"/>
<path d="M1548 93 c7 -3 16 -2 19 1 4 3 -2 6 -13 5 -11 0 -14 -3 -6 -6z"/>
</g>
</svg>
